<?xml version="1.0" encoding="UTF-8"?>
<!DOCTYPE svg PUBLIC "-//W3C//DTD SVG 1.1//EN" "http://www.w3.org/Graphics/SVG/1.1/DTD/svg11.dtd">
<!-- Creator: CorelDRAW X7 -->
<svg xmlns="http://www.w3.org/2000/svg" xml:space="preserve" width="4.26666in" height="4.26666in" version="1.1" style="shape-rendering:geometricPrecision; text-rendering:geometricPrecision; image-rendering:optimizeQuality; fill-rule:evenodd; clip-rule:evenodd"
viewBox="0 0 4267 4267"
 xmlns:xlink="http://www.w3.org/1999/xlink">
 <defs>
  <style type="text/css">
   <![CDATA[
    .fil0 {fill:#2D1E58}
    .fil2 {fill:#C02859}
    .fil1 {fill:#E44750}
    .fil6 {fill:#E46C49}
    .fil4 {fill:#EDD057}
    .fil3 {fill:#F5874E}
    .fil5 {fill:#F7A04E}
   ]]>
  </style>
 </defs>
 <g id="Layer_x0020_1">
  <metadata id="CorelCorpID_0Corel-Layer"/>
  <path class="fil0" d="M1129 771c184,-51 339,4 476,72 -116,113 -568,87 -596,541 -7,162 -10,305 45,457 7,20 15,40 26,62 21,42 18,35 38,61 7,-218 81,-424 169,-589 92,-172 201,-301 412,-340 -65,332 145,115 163,431 11,193 1,424 -1,620 7,444 -88,1081 -337,1403 -68,89 -108,88 -244,113 -139,26 -405,125 -539,111 -52,79 -206,102 -377,175 -140,59 -242,109 -372,171 256,4 723,-85 1029,-112 561,-50 1673,-62 2234,-14 292,25 771,132 1012,126 -179,-114 -472,-251 -711,-322l-5 -73 -49 51c-304,-116 -835,-210 -1221,-210 20,-105 43,-128 36,-242 164,-116 103,-480 463,-602 101,244 52,239 22,497 135,-76 283,-292 79,-511l-68 -81c252,11 243,108 386,195 -21,-97 -53,-158 -92,-212 -97,-80 -170,-63 -323,-74 53,-203 70,-245 -44,-413l-92 -50c60,101 82,252 61,415 -114,-109 0,-116 -256,-290 12,-99 86,-208 119,-333 32,-121 55,-254 29,-386 -67,-438 -398,-436 -544,-541 93,-112 254,-174 426,-211 264,-57 305,-2 542,26 -50,-141 -245,-272 -440,-274 -98,-1 -180,46 -279,73 -180,50 -130,-15 -301,-16 64,-185 268,-413 406,-496 -295,1 -595,230 -617,524 -136,17 -194,67 -277,68 -83,1 -558,-190 -750,281 105,-38 270,-132 362,-81z"/>
  <path class="fil1" d="M242 2674c21,192 106,431 180,579 50,99 92,161 144,233 49,70 147,181 175,227 134,14 400,-85 539,-111 136,-25 176,-24 244,-113 249,-322 344,-959 337,-1403 -413,-3 -627,-148 -1002,42 -318,161 -290,440 -617,546z"/>
  <path class="fil2" d="M3107 2549c39,54 71,115 92,212 -143,-87 -134,-184 -386,-195l68 81c204,219 56,435 -79,511 30,-258 79,-253 -22,-497 -360,122 -299,486 -463,602 7,114 -16,137 -36,242 386,0 917,94 1221,210l49 -51c197,-197 393,-576 452,-920 59,-339 22,-897 -151,-1146 1,332 -237,765 -400,806 -187,48 2,-69 -303,-106 56,186 241,240 -42,251z"/>
  <path class="fil3" d="M1009 1384c-145,47 -267,117 -389,208 -118,87 -231,229 -323,274 -32,229 -124,529 -55,808 327,-106 299,-385 617,-546 375,-190 589,-45 1002,-42 2,-196 12,-427 1,-620 -18,-316 -228,-99 -163,-431 -211,39 -320,168 -412,340 -88,165 -162,371 -169,589 -20,-26 -17,-19 -38,-61 -11,-22 -19,-42 -26,-62 -55,-152 -52,-295 -45,-457z"/>
  <path class="fil4" d="M2601 1418c291,20 889,29 982,-226 -112,-205 -506,-407 -558,-500 -237,-28 -278,-83 -542,-26 -172,37 -333,99 -426,211 146,105 477,103 544,541z"/>
  <path class="fil5" d="M2601 1418c26,132 3,265 -29,386 -33,125 -107,234 -119,333 256,174 142,181 256,290 21,-163 -1,-314 -61,-415l92 50c359,33 978,-405 955,-694 -13,-93 -46,-122 -112,-176 -93,255 -691,246 -982,226z"/>
  <path class="fil6" d="M2740 2062c114,168 97,210 44,413 153,11 226,-6 323,74 283,-11 98,-65 42,-251 305,37 116,154 303,106 163,-41 401,-474 400,-806 -39,-87 -73,-187 -157,-230 23,289 -596,727 -955,694z"/>
  <path class="fil2" d="M1903 2795l-80 374c-36,141 -64,230 -93,358l484 -30c23,-85 27,-178 103,-234 -8,-116 85,-264 131,-352 103,-193 76,-130 132,-362 -306,63 -255,234 -420,391 -7,-195 50,-296 130,-405 -90,21 -154,57 -219,107 -42,31 -48,41 -84,77l-84 76z"/>
  <path class="fil5" d="M1959 2073l472 2c-1,-450 -69,-863 -382,-1052 -72,95 63,169 -127,283l37 767z"/>
  <path class="fil4" d="M1129 771c-85,75 -180,132 -265,209 -91,83 -153,158 -232,250 -148,174 -248,373 -335,636 92,-45 205,-187 323,-274 122,-91 244,-161 389,-208 28,-454 480,-428 596,-541 -137,-68 -292,-123 -476,-72z"/>
  <path class="fil6" d="M1903 2795l84 -76c36,-36 42,-46 84,-77 65,-50 129,-86 219,-107 120,-55 137,-56 300,-56 -30,-215 -238,-223 -378,-307 318,-77 192,-13 219,-97l-472 -2 -56 722z"/>
 </g>
</svg>
