<?xml version="1.0" encoding="UTF-8"?>
<!DOCTYPE svg PUBLIC "-//W3C//DTD SVG 1.1//EN" "http://www.w3.org/Graphics/SVG/1.1/DTD/svg11.dtd">
<!-- Creator: CorelDRAW X7 -->
<svg xmlns="http://www.w3.org/2000/svg" xml:space="preserve" width="4.26666in" height="4.26666in" version="1.1" style="shape-rendering:geometricPrecision; text-rendering:geometricPrecision; image-rendering:optimizeQuality; fill-rule:evenodd; clip-rule:evenodd"
viewBox="0 0 4267 4267"
 xmlns:xlink="http://www.w3.org/1999/xlink">
 <defs>
  <style type="text/css">
   <![CDATA[
    .fil0 {fill:none}
    .fil2 {fill:#1977F2}
    .fil1 {fill:#1977F3}
    .fil3 {fill:#20A360}
    .fil6 {fill:#5383C2}
    .fil13 {fill:#7938A9}
    .fil10 {fill:#7F3CB0}
    .fil12 {fill:#802C28}
    .fil25 {fill:#8540B7}
    .fil15 {fill:#8943BC}
    .fil20 {fill:#8944BB}
    .fil51 {fill:#8D47C1}
    .fil17 {fill:#8E48C2}
    .fil14 {fill:#914AC6}
    .fil9 {fill:#924CC8}
    .fil18 {fill:#9C49BB}
    .fil47 {fill:#9E46B5}
    .fil41 {fill:#A245B2}
    .fil61 {fill:#A63DA6}
    .fil63 {fill:#A840A6}
    .fil40 {fill:#AA3EA2}
    .fil66 {fill:#AC3688}
    .fil62 {fill:#AD3B9B}
    .fil57 {fill:#B23993}
    .fil23 {fill:#B5368B}
    .fil68 {fill:#BA3589}
    .fil27 {fill:#BD317E}
    .fil72 {fill:#BE2E7A}
    .fil8 {fill:#C2C2C1}
    .fil45 {fill:#C32C72}
    .fil44 {fill:#C82768}
    .fil53 {fill:#CB2663}
    .fil70 {fill:#CD2256}
    .fil50 {fill:#CE245C}
    .fil22 {fill:#D2112C}
    .fil28 {fill:#D30C13}
    .fil37 {fill:#D32154}
    .fil67 {fill:#D41F52}
    .fil49 {fill:#D51D4C}
    .fil52 {fill:#D71A45}
    .fil58 {fill:#DA1D4A}
    .fil39 {fill:#DB1A44}
    .fil5 {fill:#DC4A3D}
    .fil43 {fill:#DE163B}
    .fil71 {fill:#DE183E}
    .fil34 {fill:#E31332}
    .fil36 {fill:#E90A17}
    .fil60 {fill:#E90F28}
    .fil64 {fill:#E91125}
    .fil11 {fill:#EBEBEB}
    .fil42 {fill:#EC0D24}
    .fil69 {fill:#EE0B1D}
    .fil65 {fill:#F20A1B}
    .fil38 {fill:#F40613}
    .fil21 {fill:#F50302}
    .fil54 {fill:#F6050C}
    .fil48 {fill:#F60B04}
    .fil29 {fill:#F73701}
    .fil19 {fill:#F7B801}
    .fil26 {fill:#F7C801}
    .fil24 {fill:#F7D303}
    .fil16 {fill:#F82A01}
    .fil33 {fill:#F84801}
    .fil46 {fill:#F85701}
    .fil59 {fill:#F86702}
    .fil55 {fill:#F87702}
    .fil35 {fill:#F88E02}
    .fil56 {fill:#F8A802}
    .fil30 {fill:#F8C302}
    .fil31 {fill:#F91302}
    .fil32 {fill:#F91C01}
    .fil7 {fill:#FEDB44}
    .fil4 {fill:#FEFEFE}
   ]]>
  </style>
   <clipPath id="id0">
    <rect y="1409" width="4267" height="1448"/>
   </clipPath>
 </defs>
 <g id="Layer_x0020_1">
  <metadata id="CorelCorpID_0Corel-Layer"/>
  <rect class="fil0" width="4267" height="4267"/>
  <g style="clip-path:url(#id0)">
   <image x="0" y="1409" width="4267" height="1448" xlink:href="social_Images\social_ImgID1.png"/>
  </g>
  <g id="_2977052310112">
   <path class="fil1" d="M3464 2804l0 -457 -165 0 -1 -187 166 -1c3,-91 -13,-198 29,-280 39,-76 112,-113 198,-117l366 -2c11,0 17,3 18,-5 -1,-20 -78,-89 -97,-103 -86,-69 -168,-109 -276,-133 -40,-9 -97,-15 -139,-15 -228,-2 -434,124 -554,313 -51,79 -97,218 -96,311 2,138 13,210 75,335 41,84 113,164 187,220 67,51 206,119 289,121z"/>
   <path class="fil2" d="M3691 1762c8,-1 160,1 165,16l0 157c-113,0 -189,-13 -188,119 0,34 -2,71 0,105l180 0 -29 189 -151 -1 -1 457c39,0 133,-32 169,-50 147,-74 256,-171 326,-326 74,-166 76,-376 -1,-539 -13,-28 -62,-124 -86,-134 -1,8 -7,5 -18,5l-366 2z"/>
   <path class="fil3" d="M1819 1831c-12,-4 -17,-17 -52,-22 -51,-8 -122,42 -99,121 4,17 15,33 28,44 21,18 29,18 56,22 47,7 90,-34 88,-61l-85 0 -1 -56c24,2 50,0 75,0 26,0 48,2 73,3 0,49 2,68 -23,110 -8,13 -18,26 -32,35 -48,30 -113,39 -158,13 -33,-19 -48,-34 -67,-65 -27,-43 -21,-112 8,-156 4,-7 24,-31 31,-35 47,-32 102,-44 157,-21 7,3 36,21 40,26 -1,4 -34,36 -39,42zm-312 799c-4,-13 -3,-18 -3,-32 3,-7 137,-135 161,-161l363 -363c21,-25 58,-57 81,-83 11,-13 31,-27 40,-41l-30 -68c-12,-24 -13,-56 -16,-81 -7,-61 8,-103 33,-156l-554 1c-6,1 -1,1 -7,3 -9,3 -21,3 -41,18 -3,3 -18,22 -19,24 -6,14 -3,21 -13,33l0 902 5 4z"/>
   <path class="fil4" d="M3464 2804c13,10 138,9 156,7 7,0 41,-3 47,-7l1 -457 151 1 29 -189 -180 0c-2,-34 0,-71 0,-105 -1,-132 75,-119 188,-119l0 -157c-5,-15 -157,-17 -165,-16 -86,4 -159,41 -198,117 -42,82 -26,189 -29,280l-166 1 1 187 165 0 0 457z"/>
   <path class="fil5" d="M2376 1686c51,-16 144,35 118,125 -6,23 -8,21 -17,32 -3,4 -8,9 -12,13 -25,25 -69,29 -98,21 -38,-10 -64,-39 -72,-78 -5,-25 1,-58 19,-76 10,-10 3,-10 27,-24 34,-20 19,-9 35,-13zm-240 -41c-25,53 -40,95 -33,156 3,25 4,57 16,81l30 68c6,3 52,79 69,98l23 33c7,8 19,24 24,33 5,9 7,10 11,17 4,6 7,15 11,21 4,7 6,7 11,16l30 60c13,26 25,56 32,85 7,32 18,61 19,100 4,10 9,12 18,17 9,-8 10,-2 15,-15 4,-13 2,-19 4,-30 3,-19 18,-88 25,-102 8,-16 11,-31 18,-47 3,-7 7,-11 11,-19 4,-8 5,-15 10,-24 19,-30 56,-102 76,-118l7 6 -3 -12c5,-6 5,-6 9,-12 13,-21 29,-37 42,-60l19 -32c7,-11 4,2 13,-18 1,-4 1,-3 3,-7 4,-5 0,2 4,-6l13 -28c12,-21 11,-30 16,-40 15,-34 17,-117 5,-155 -3,-10 -5,-7 -12,-29 -7,-26 -3,-5 -12,-29 -6,-17 -21,-38 -36,-50l-10 -12c-7,-18 -10,-10 -21,-22 -4,-4 -22,-19 -26,-21 -3,-2 -11,-4 -14,-6 -13,-7 8,-2 -30,-16 -15,-5 -3,-4 -14,-9l-41 -12c-21,-7 -74,-11 -95,-7 -9,1 -14,0 -22,1l-26 5c-11,3 1,1 -8,4 -6,3 -13,3 -19,5l-106 60c-4,3 -2,1 -7,6 -12,18 -1,4 -11,12l-34 45c-2,4 -2,5 -4,9z"/>
   <path class="fil6" d="M1558 2697c4,7 11,6 20,7 46,6 703,2 803,2l90 0c9,0 16,-4 26,-5l2 -7c-20,6 -23,9 -46,9l-106 -105c-5,-4 -23,-23 -27,-28l-25 -25c-14,-12 -40,-38 -51,-51 -6,-7 -10,-7 -15,-13l-65 -67c-5,-5 -8,-5 -13,-11 -14,-18 -24,-23 -40,-41l-78 -76 -27 27c-13,11 0,2 -26,25 -10,9 -33,36 -53,52 -9,9 -5,9 -12,16 -5,5 -9,6 -14,11 -9,9 -17,19 -25,27l-28 26c-7,6 -4,8 -11,14 -6,6 -8,4 -14,11 -18,20 -34,34 -53,53 -10,9 -2,7 -14,14 -10,8 -26,30 -38,39 -21,16 -61,65 -78,78 -29,21 -14,38 -82,18z"/>
   <path class="fil7" d="M1507 2630c0,27 26,60 51,67 68,20 53,3 82,-18 17,-13 57,-62 78,-78 12,-9 28,-31 38,-39 12,-7 4,-5 14,-14 19,-19 35,-33 53,-53 6,-7 8,-5 14,-11 7,-6 4,-8 11,-14l28 -26c8,-8 16,-18 25,-27 5,-5 9,-6 14,-11 7,-7 3,-7 12,-16 20,-16 43,-43 53,-52 26,-23 13,-14 26,-25l27 -27 -6 -10 108 -106 8 6c6,-5 5,-7 11,-12 5,-5 7,-3 12,-11 7,-9 1,-4 12,-11 9,-6 5,-7 11,-14 7,-6 6,-1 13,-10 7,-9 30,-32 39,-37l-23 -33c-17,-19 -63,-95 -69,-98 -9,14 -29,28 -40,41 -23,26 -60,58 -81,83l-363 363c-24,26 -158,154 -161,161 0,14 -1,19 3,32z"/>
   <path class="fil4" d="M2033 2286l78 76c16,18 26,23 40,41 5,6 8,6 13,11l65 67c5,6 9,6 15,13 11,13 37,39 51,51l25 25c4,5 22,24 27,28l106 105c23,0 26,-3 46,-9l5 3 3 -3 27 -20 14 -12 5 -2 -3 -5c2,-11 7,-16 8,-29 4,-45 -11,-41 -41,-74 -24,-26 -111,-106 -120,-122 -9,-5 -14,-7 -18,-17 -17,-12 -44,-43 -60,-59 -26,-27 -167,-164 -176,-178l-8 -6 -108 106 6 10z"/>
   <path class="fil8" d="M2397 2430c9,16 96,96 120,122 30,33 45,29 41,74 -1,13 -6,18 -8,29l8 -1c7,-41 5,-32 6,-74 0,0 0,-1 0,-2 1,-20 -1,-9 -1,-23 0,-7 2,-11 2,-15 0,-5 -2,-10 -2,-18 -2,-93 0,-206 0,-302l1 -51c0,-4 -1,-11 -1,-18 0,-20 7,-53 0,-70l-7 -6c-20,16 -57,88 -76,118 -5,9 -6,16 -10,24 -4,8 -8,12 -11,19 -7,16 -10,31 -18,47 -7,14 -22,83 -25,102 -2,11 0,17 -4,30 -5,13 -6,7 -15,15z"/>
   <path class="fil9" d="M1111 2175l-2 -100c0,-22 3,-16 -9,-31 -11,16 -1,7 -1,12l-15 -2c0,-9 -2,-7 1,-15 -8,-6 0,-2 -11,-4l14 0c-2,-7 -4,1 -11,-12l-7 8c-2,-6 -2,-4 -4,-7l-7 -8c-3,-5 -4,0 -1,-8 -4,0 -9,-6 -10,3l-1 -9c7,6 6,1 8,0l9 -4c-8,-19 -9,-2 -7,-18 -15,1 -2,2 -17,-5 -5,6 -4,4 -9,4 -1,0 -2,0 -2,0 -14,1 -3,0 -17,-3 1,6 -4,7 4,7l-6 -1 -1 -13 -15 -1 1 -10c7,0 4,1 6,3l8 5c1,-9 0,-4 0,-11l-6 -24 -7 5c7,9 4,2 5,10 -3,3 -4,5 -6,9l-13 -4 -1 -15c-11,2 -10,6 -18,-1 10,-2 9,3 15,-6 -5,-5 3,-4 -11,-6 -3,0 -9,1 -11,2l1 -10c-8,-8 -19,-2 -30,-25l-4 -5c-13,-8 -5,-2 -5,-9 -9,0 -6,8 -8,-19 0,0 -1,1 -1,1l-6 8c1,-10 7,-17 -3,-19 -14,-4 6,2 -18,3 0,-14 3,-10 -8,-13 12,-5 1,11 16,-6 13,14 13,4 14,3l-5 -6c0,0 -5,-3 -7,-4 -4,-5 -4,-8 -5,-15l-17 0c3,8 -2,2 7,6 -11,1 -10,-2 -16,-9l16 -1 -9 -6c14,-2 14,4 14,-8 -4,4 -6,5 -16,5l3 -19 -7 -4 7 -10 -33 1c3,-8 -4,-1 8,-7l-9 -4 1 -26c-11,-3 -64,-2 -81,-2 -30,-1 -57,-1 -86,-1 2,7 11,27 23,23l2 15c16,2 9,4 15,11 8,10 10,-2 11,17 16,1 1,-3 18,12 12,12 8,7 14,19 20,4 17,9 19,13 11,21 12,15 20,20l17 17c8,12 0,1 12,10 5,3 17,18 18,26 19,2 11,4 17,13 8,12 11,2 13,20 18,1 14,4 19,10 6,8 8,5 10,18l10 2 3 13 14 1c5,9 5,18 23,22 -2,5 -3,4 2,10 7,7 2,-2 8,11 2,5 3,7 6,10l11 7c16,16 29,25 38,27 1,0 2,0 2,1 1,5 3,9 0,14l13 3c2,15 6,11 6,24 7,2 9,3 15,8 12,9 1,4 16,13 18,12 2,12 24,14 1,13 1,10 11,14 6,17 2,16 10,10 0,0 1,-1 2,-1l0 4z"/>
   <path class="fil10" d="M464 1646c-21,4 -46,5 -65,15 -12,3 -18,9 -27,9 -5,9 -20,13 -30,20l-14 7 -3 5c7,0 25,-12 33,-17 17,-11 29,-16 50,-21l14 -4c9,-3 -1,0 5,-3 30,-13 201,-7 243,-7 43,0 262,-4 295,5l39 12c12,3 25,13 37,12 11,3 24,11 30,19 0,7 1,5 6,4 18,9 55,46 63,66 -4,7 1,5 3,6 10,7 16,20 19,32 37,59 25,210 25,284 0,51 0,102 0,153 0,48 3,106 -3,153l3 0 1 -22 2 -50 1 -61 1 -179 1 -179 15 -3c-3,-10 -17,-3 -12,-18 8,-1 3,-3 9,6 8,-4 0,2 7,-9 8,11 1,4 11,12 -3,9 2,2 -7,7 11,9 8,-3 21,9 -6,5 -11,8 -14,16 11,-3 1,-3 13,-8 22,19 15,2 27,12 8,10 2,5 3,9l19 18c0,12 -4,41 4,47l-7 -173c-16,10 -15,9 -15,-6 5,5 3,2 9,-2l0 -17c-13,-8 -3,2 -16,-11 -7,-8 -3,0 -7,-9l-11 -1c19,-10 12,-16 2,-24 -6,3 -7,1 -10,9l6 -15c-6,-5 -5,-1 -4,-7l-12 -1c7,-11 -4,-4 -16,-22l-16 2c7,-2 4,0 14,-8l-13 -6c-1,-12 0,-2 -3,-11 4,-9 -2,1 8,-8 -19,-6 -9,-1 -17,-1 -14,0 5,-3 -16,-5 1,7 -5,6 5,11 -3,0 -7,1 -8,-5 0,-1 0,-2 -1,-3 -3,5 -8,3 -3,12 -4,-7 8,-5 -10,-6 -2,-14 -4,-6 -8,-15 10,-3 3,-3 9,-2l5 1c9,-2 1,2 5,-5l-5 -2c-10,-4 2,0 -6,-2 -20,-4 -1,6 -15,-8l-5 5c-6,-7 -5,-3 -6,-12 16,1 11,0 16,-4 -5,-3 -1,-2 -7,-3l3 -2c-4,-3 5,-3 -12,-4 7,-9 1,-4 -1,-8 -14,0 1,-4 -17,-1l-2 11c-1,-1 -2,-1 -2,-1l-2 -2c-4,-7 -1,-12 0,-14 9,7 1,8 18,5l-8 -5c0,0 0,-1 0,-1 -1,0 -1,-1 -1,-1l-19 -3 8 -11c-22,-3 -3,2 -15,3 -4,0 -5,-2 -10,-6l-4 8c-1,-23 1,-17 -10,-28l5 -12c-11,-6 -7,2 -6,-9 -14,-3 -3,1 -11,-6l-32 -6c10,0 -5,-12 -7,-11 5,-11 5,-5 10,-12 -4,3 -2,2 -11,2 -11,-2 -2,2 -10,-5 -10,1 -29,-1 -43,-1 -16,0 -31,2 -46,1 -30,0 -59,2 -88,2 6,-7 26,3 36,2 2,0 -2,1 4,-1 1,0 2,0 3,-1 0,-1 2,-1 3,-1 10,8 9,10 41,8 11,-1 6,-5 23,4l-7 12c16,15 26,14 30,16l8 5c-4,12 -6,1 -3,10 1,0 1,0 2,0l27 0 1 29c15,6 6,0 25,1 2,8 -1,-1 -1,6l15 6 -11 6c9,6 5,-1 15,6 -6,4 2,2 -10,3l5 3c0,0 0,2 0,2 0,0 -1,2 -1,1 0,0 0,1 0,1l20 1c0,25 -38,9 -52,4 -7,-2 1,1 -6,-3 -13,-7 -12,-3 -24,-5 -15,-2 -23,-2 -38,-2 -56,0 -438,-3 -459,1z"/>
   <path class="fil11" d="M1819 1831c5,-6 38,-38 39,-42 -4,-5 -33,-23 -40,-26 -55,-23 -110,-11 -157,21 -7,4 -27,28 -31,35 -29,44 -35,113 -8,156 19,31 34,46 67,65 45,26 110,17 158,-13 14,-9 24,-22 32,-35 25,-42 23,-61 23,-110 -25,-1 -47,-3 -73,-3 -25,0 -51,2 -75,0l1 56 85 0c2,27 -41,68 -88,61 -27,-4 -35,-4 -56,-22 -13,-11 -24,-27 -28,-44 -23,-79 48,-129 99,-121 35,5 40,18 52,22z"/>
   <path class="fil12" d="M2376 1686c-16,4 -1,-7 -35,13 -24,14 -17,14 -27,24 -18,18 -24,51 -19,76 8,39 34,68 72,78 29,8 73,4 98,-21 4,-4 9,-9 12,-13 9,-11 11,-9 17,-32 26,-90 -67,-141 -118,-125z"/>
   <path class="fil8" d="M2143 2176c9,14 150,151 176,178 16,16 43,47 60,59 -1,-39 -12,-68 -19,-100 -7,-29 -19,-59 -32,-85l-30 -60c-5,-9 -7,-9 -11,-16 -4,-6 -7,-15 -11,-21 -4,-7 -6,-8 -11,-17 -5,-9 -17,-25 -24,-33 -9,5 -32,28 -39,37 -7,9 -6,4 -13,10 -6,7 -2,8 -11,14 -11,7 -5,2 -12,11 -5,8 -7,6 -12,11 -6,5 -5,7 -11,12z"/>
   <path class="fil13" d="M1289 2003l1 2c1,-64 2,-135 -3,-199l2 -4c-4,-7 -16,-63 -23,-80 -11,-26 -23,-42 -37,-66 -9,-8 -18,-21 -27,-31 -50,-50 -94,-63 -103,-72 1,-8 -10,-8 -19,-11 -9,-4 -16,-5 -26,-7 -22,-5 -35,-8 -59,-8l0 3c8,7 -1,3 10,5 9,0 7,1 11,-2 -5,7 -5,1 -10,12 2,-1 17,11 7,11l32 6c8,7 -3,3 11,6 -1,11 -5,3 6,9l-5 12c11,11 9,5 10,28l4 -8c5,4 6,6 10,6 12,-1 -7,-6 15,-3l-8 11 19 3c0,0 0,1 1,1 0,0 0,1 0,1l8 5c-17,3 -9,2 -18,-5 -1,2 -4,7 0,14l2 2c0,0 1,0 2,1l2 -11c18,-3 3,1 17,1 2,4 8,-1 1,8 17,1 8,1 12,4l-3 2c6,1 2,0 7,3 -5,4 0,5 -16,4 1,9 0,5 6,12l5 -5c14,14 -5,4 15,8 8,2 -4,-2 6,2l5 2c-4,7 4,3 -5,5l-5 -1c-6,-1 1,-1 -9,2 4,9 6,1 8,15 18,1 6,-1 10,6 -5,-9 0,-7 3,-12 1,1 1,2 1,3 1,6 5,5 8,5 -10,-5 -4,-4 -5,-11 21,2 2,5 16,5 8,0 -2,-5 17,1 -10,9 -4,-1 -8,8 3,9 2,-1 3,11l13 6c-10,8 -7,6 -14,8l16 -2c12,18 23,11 16,22l12 1c-1,6 -2,2 4,7l-6 15c3,-8 4,-6 10,-9 10,8 17,14 -2,24l11 1c4,9 0,1 7,9 13,13 3,3 16,11l0 17c-6,4 -4,7 -9,2 0,15 -1,16 15,6l7 173z"/>
   <path class="fil14" d="M600 1643l111 -1 23 -1c1,-1 3,-7 4,-10l-7 -6 -7 9 -10 -13c9,-4 5,0 6,-6 -1,-11 -7,-2 -8,-1 -1,-16 7,-10 -6,-14l-6 -4c1,14 4,5 1,13 -9,-11 0,-9 -13,-16l2 -9c-15,1 -14,6 -14,-14 -13,-3 2,10 -18,-2l-1 -15c-6,11 -9,4 -13,-3 8,1 14,0 21,0 12,-1 11,1 12,-7 -11,-5 -19,4 -22,-9l-69 -2c24,-1 121,2 135,-5l-317 0 62 2 25 24c5,3 1,-4 7,8 2,3 2,4 5,8 8,11 7,2 9,17l14 1c10,23 13,1 17,29l13 3c7,17 8,10 17,23l27 1z"/>
   <path class="fil15" d="M669 1724c29,0 56,0 86,1 17,0 70,-1 81,2 9,0 23,-1 31,0 21,2 -4,1 28,8l2 11c3,-10 2,-3 6,-4 1,9 4,5 -5,12 7,-1 5,-1 10,-6 0,0 1,1 1,2 0,0 0,1 0,1l8 5c1,0 2,1 2,1 -5,14 -6,2 -10,13 6,10 1,-5 9,9 8,-7 3,-5 14,-8 2,6 10,3 -3,8 13,-1 14,-3 18,9 -19,-1 -2,-9 -18,2l10 -1 -2 21c12,0 8,-1 12,-3 4,-2 -1,-7 9,1l-6 -7c11,-11 1,-9 16,-11 -1,9 1,6 -6,11 11,8 2,3 9,11 9,11 1,-2 8,4 -17,0 -19,-3 -27,6 21,-1 34,-3 50,13 12,13 17,35 10,51l-1 6c10,-1 9,-5 10,-15 4,3 1,4 8,-1 10,-6 2,0 9,-10l17 14c0,0 3,2 3,3 -10,7 -5,0 -8,7l8 4c-3,7 4,4 -6,8 14,-2 0,-4 15,-10 8,4 4,4 10,13l16 0c3,6 4,8 12,9 3,-6 2,-9 3,-9 1,-3 5,-2 8,-4l-2 -9 -3 -16c-15,-43 -21,-62 -53,-95 -69,-73 -154,-60 -247,-60 -50,-1 -101,0 -151,-1 4,5 -2,3 9,4z"/>
   <path class="fil16" d="M291 2206l3 27c18,1 4,5 16,12 8,5 2,-3 11,5 0,1 4,8 6,9 4,5 1,-1 9,6 0,1 6,8 7,9 19,21 4,4 16,14 5,3 10,13 14,17l11 12c17,12 8,10 16,24 6,12 4,-2 11,11 0,0 0,1 0,1l12 1 38 40c3,2 0,-1 4,4 0,0 1,1 1,1 1,1 1,2 1,2 8,10 5,3 12,11 14,18 6,7 20,17 7,5 3,2 7,7 1,0 1,1 1,1 12,14 3,10 18,14l2 7c1,4 -1,1 3,5l11 10c14,20 14,4 16,21 18,1 14,9 22,18 23,26 14,17 38,23 -3,3 -5,8 -10,3l6 9 48 -1 -10 -2c7,-4 3,0 3,-8 -15,-5 -10,-10 -29,-25 -8,-6 -6,-11 -26,-28 -25,-21 0,-8 -19,-19 -12,-6 -4,-8 -28,-26 -14,-11 -9,-8 -22,-23 -1,-1 -2,-2 -3,-3 -10,-14 4,-3 -10,-12l-29 -28c-12,-17 -10,-6 -21,-18 -6,-6 -2,-5 -7,-10 -13,-14 -38,-31 -47,-46 -5,-9 -24,-21 -28,-28 -7,-11 4,-3 -8,-10 -6,-3 -7,-3 -11,-7 -7,-8 0,-3 -11,-9 -2,-11 3,4 1,-6 -7,-2 -4,4 -6,-9 -12,-2 -9,1 -14,-7 -7,-13 4,-2 -9,-12l-1 -14c-1,9 0,6 -6,9 -9,-44 -23,-2 -17,-26l-5 6c-4,-9 1,-3 -6,-5 -3,10 -4,16 -1,26z"/>
   <path class="fil14" d="M1193 2264c18,2 9,13 16,3 2,23 9,4 12,27l11 1c4,19 11,13 17,19l2 4c2,4 -1,1 3,4 5,5 5,1 13,10l13 13c3,9 2,17 7,27 -2,-4 0,-84 -1,-98 0,-24 2,-75 -2,-96l-2 -4c-12,8 -3,0 -23,2l-1 -14 -9 -6c3,-9 5,-9 14,-12 -6,-4 -14,-2 -23,-2 2,-8 2,-9 10,-13l-17 -2c-7,-16 -17,0 -13,-27l-10 3c-3,-6 -3,-4 -5,-6 0,-1 0,-1 -1,-2 -8,-12 -6,2 -10,-10 3,46 -10,108 -1,179z"/>
   <path class="fil17" d="M1011 1892c-9,7 -11,15 -26,20 -7,6 -19,3 -28,3l-1 10c2,-1 8,-2 11,-2 14,2 6,1 11,6 -6,9 -5,4 -15,6 8,7 7,3 18,1l1 15 13 4c2,-4 3,-6 6,-9 -1,-8 2,-1 -5,-10l7 -5 6 24c0,7 1,2 0,11l-8 -5c-2,-2 1,-3 -6,-3l-1 10 15 1 1 13 6 1c-8,0 -3,-1 -4,-7 14,3 3,4 17,3 0,0 1,0 2,0 5,0 4,2 9,-4 15,7 2,6 17,5 -2,16 -1,-1 7,18l-9 4c-2,1 -1,6 -8,0l1 9c1,-9 6,-3 10,-3 -3,8 -2,3 1,8l7 8c2,3 2,1 4,7l7 -8c7,13 9,5 11,12l-14 0c11,2 3,-2 11,4 -3,8 -1,6 -1,15l15 2c0,-5 -10,4 1,-12 12,15 9,9 9,31l2 100 2 13 2 65 0 33 0 67 0 0c4,-72 0,-156 0,-230l-1 -231 2 9c-3,2 -7,1 -8,4 -1,0 0,3 -3,9 -8,-1 -9,-3 -12,-9l-16 0c-6,-9 -2,-9 -10,-13 -15,6 -1,8 -15,10 10,-4 3,-1 6,-8l-8 -4c3,-7 -2,0 8,-7 0,-1 -3,-3 -3,-3l-17 -14c-7,10 1,4 -9,10 -7,5 -4,4 -8,1 -1,10 0,14 -10,15z"/>
   <path class="fil18" d="M830 1939l13 11c12,6 33,21 40,32 12,7 20,25 30,32 19,4 6,7 24,9l-6 2c7,10 11,18 20,25 -5,5 -4,1 -4,10 5,-7 0,-5 10,-6 3,8 -1,4 14,7 -3,7 3,6 8,12l19 19c9,8 8,3 10,16 15,1 9,2 16,12 4,6 10,7 17,11 3,6 -3,4 7,11 23,19 15,27 39,37l3 10c11,2 7,2 15,7 7,-9 1,-5 8,-8l-2 -13 0 -4c-1,0 -2,1 -2,1 -8,6 -4,7 -10,-10 -10,-4 -10,-1 -11,-14 -22,-2 -6,-2 -24,-14 -15,-9 -4,-4 -16,-13 -6,-5 -8,-6 -15,-8 0,-13 -4,-9 -6,-24l-13 -3c3,-5 1,-9 0,-14 0,-1 -1,-1 -2,-1 -9,-2 -22,-11 -38,-27l-11 -7c-3,-3 -4,-5 -6,-10 -6,-13 -1,-4 -8,-11 -5,-6 -4,-5 -2,-10 -18,-4 -18,-13 -23,-22l-14 -1 -3 -13 -10 -2c-2,-13 -4,-10 -10,-18 -5,-6 -1,-9 -19,-10 -2,-18 -5,-8 -13,-20 -6,-9 2,-11 -17,-13 -1,-8 -13,-23 -18,-26 -12,-9 -4,2 -12,-10l-17 -17c-8,-5 -9,1 -20,-20 -2,-4 1,-9 -19,-13 -6,-12 -2,-7 -14,-19 -17,-15 -2,-11 -18,-12 -1,-19 -3,-7 -11,-17 -6,-7 1,-9 -15,-11l-2 -15c-12,4 -21,-16 -23,-23 -11,-1 -5,1 -9,-4l-28 0 -3 9c17,3 20,16 22,31l12 3c-2,11 0,6 4,8 11,6 -3,3 16,8 -4,10 -2,2 3,8 4,3 8,9 19,14 5,3 1,-3 8,3 6,6 0,2 4,6 6,8 4,2 20,23 7,11 2,2 11,10 7,5 3,4 8,8 10,10 -2,-7 13,12 4,5 0,0 4,4 2,3 1,2 5,5l18 20c4,3 -1,2 9,2 2,17 1,5 7,10l24 29 -6 6z"/>
   <path class="fil19" d="M96 2384l6 -3c0,14 2,5 8,11 2,2 7,12 8,17l11 2c2,13 0,5 6,10 8,7 9,3 9,2l-1 12c4,0 8,2 10,3 8,5 -1,1 8,9l8 9c1,1 12,11 13,12 9,8 7,8 12,13 2,2 6,4 8,6l35 34c2,4 5,4 1,13l15 7 -1 7c19,4 9,3 17,10 0,0 2,2 3,2 10,9 6,13 16,17 9,3 4,-3 11,8l10 4c1,0 1,1 1,1 1,1 2,11 9,17l22 16c2,2 10,9 11,10 14,9 -2,-3 20,19 10,10 -1,7 14,11 -2,-2 -1,5 13,13 9,6 12,2 15,16l0 4c5,12 4,-3 8,12 7,-6 3,-8 4,4 12,2 23,0 28,7l18 -3 -16 -6c-3,-11 -9,-12 -1,-19 -2,1 -11,-3 -14,-6 -11,-7 -3,-11 -14,-9l-2 -11c-5,3 -18,-9 -22,-14 -9,-12 -9,-6 -20,-24 -9,-13 1,-5 -9,-10 -19,-9 0,-3 -17,-14 -13,-9 1,-1 -16,-15l3 -5 -8 -10c0,-7 -1,-5 -6,-3 -12,-6 -23,-16 -32,-26 -10,-8 -19,-19 -27,-30 -7,-8 -17,-26 -23,-31l-8 0 -10 -15 -7 4c-10,-16 -28,-30 -35,-39 -9,-13 4,-5 -14,-11 -4,-13 1,-6 -5,-12l-10 -8c-25,-14 -19,-28 -28,-32 -1,-1 -3,-1 -3,-1 -13,-8 -4,-12 -32,-13l0 28z"/>
   <path class="fil20" d="M1192 2084l1 -76c14,1 1,-2 10,8l-7 5 9 7c1,-4 -1,-6 8,-3 2,9 -5,4 3,15 11,-4 4,-5 -1,-9 16,-8 -5,-4 6,-16 5,3 10,11 17,16l-3 12 10 -5 5 15c3,11 3,-1 2,8 -2,14 -11,10 5,22 -7,8 -8,2 -5,8 5,-9 16,-7 27,-5l-14 3c12,5 3,4 14,16 4,5 0,-3 7,8l-2 65c4,21 2,72 2,96 1,14 -1,94 1,98 2,13 4,33 0,44l2 0 1 -411 -1 -2c-8,-6 -4,-35 -4,-47l-19 -18c-1,-4 5,1 -3,-9 -12,-10 -5,7 -27,-12 -12,5 -2,5 -13,8 3,-8 8,-11 14,-16 -13,-12 -10,0 -21,-9 9,-5 4,2 7,-7 -10,-8 -3,-1 -11,-12 -7,11 1,5 -7,9 -6,-9 -1,-7 -9,-6 -5,15 9,8 12,18l-15 3 -1 179z"/>
   <path class="fil21" d="M290 2121l-1 0c6,3 5,-7 6,10 1,-9 -1,-6 5,-12 8,13 10,8 18,19 13,17 18,20 30,29 5,3 1,-1 4,3 2,2 2,7 7,11 5,4 7,3 14,4l6 15 -2 11 12 4c4,19 8,17 12,21l6 7c1,1 9,4 10,4 9,5 9,11 14,18 8,11 15,4 19,7 7,9 3,11 14,21l24 20c17,23 5,25 23,26l2 -6 -15 -20c-8,-9 -17,-22 -21,-34 2,-12 -8,-26 -12,-38 -4,-13 -7,-29 -7,-44l-3 -5 0 15c-9,-6 -6,-3 -8,-15 -3,5 -8,1 -8,1 0,-1 -1,-1 -2,-1 -1,8 1,9 -2,14 -12,-5 5,-28 -29,-47l-9 -4c6,-14 -7,-11 -22,-26l-78 -80c-2,-18 -1,-36 -7,-51l0 123z"/>
   <path class="fil20" d="M655 1534c23,-2 44,6 65,2 13,-3 30,0 45,0 12,1 8,-2 12,4 -7,4 -45,4 -55,3 -5,9 -3,7 -12,12 8,3 6,-1 14,-7l10 8c1,1 2,1 2,2l-5 2c0,1 -1,1 -1,1l-2 0c-4,9 0,7 -8,12 8,3 10,2 7,8 7,-10 3,-6 14,-7 0,1 -1,1 -1,3 0,4 -3,3 -5,13 0,0 -5,-4 1,0 1,0 4,2 6,4l4 -1c3,-2 1,-2 6,-4 0,0 1,0 1,2l22 23c-5,5 -2,4 -6,4l9 -3c3,2 3,3 6,5l4 4c1,0 2,1 2,1 1,1 2,2 2,2 -14,13 -10,6 -19,16l-8 -1 64 2c23,-1 44,-2 68,-2l3 -18c-9,-8 -5,-3 -13,-8l6 -11 -33 -5 -6 -5c12,-2 4,4 14,-4 -10,-10 -1,-10 -12,-18 5,-3 1,-1 5,-1 5,-1 2,1 7,-1 -6,-5 -4,-3 -10,-9l-3 8c-1,-1 -2,-3 -2,-3 0,1 -1,-1 -1,-2 0,0 -1,-1 -1,-2 -1,-4 1,0 -2,-6l-19 -3 12 -15c-12,1 -36,7 -42,-7l18 0c29,0 58,-2 88,-2 15,1 30,-1 46,-1 14,0 33,2 43,1l0 -3 -274 0c-14,7 -111,4 -135,5l69 2z"/>
   <path class="fil22" d="M819 2390c-16,0 -51,20 -80,20 -9,2 -2,-3 -5,7 20,0 42,-8 59,-6 2,4 4,12 4,20 11,2 36,27 39,31 11,14 14,12 15,20 12,-11 16,13 16,13 3,7 9,5 15,15 6,9 4,16 13,19 13,4 16,-1 17,17l-45 1c-12,-6 -126,-2 -149,-2l-57 1 -48 1 -41 1 -63 0c-7,0 -50,1 -51,-5 -5,0 -12,2 -13,-2 -12,-1 -26,-5 -37,-10 -12,-5 -21,-13 -31,-17 -1,8 0,8 9,13 5,3 10,5 15,6 46,19 51,20 105,20 29,0 151,-2 168,1 29,5 51,-4 79,0 16,3 46,-1 53,-1 9,0 15,2 20,2l39 -2c30,0 71,2 100,-5l9 -4c0,0 1,-1 1,-1 5,-4 0,2 4,-5 -7,0 -10,1 -16,-1 -12,-5 -3,0 -11,-10 -7,-10 -12,-15 -24,-18l-4 -25c-21,-10 0,-6 -19,-10 -2,-13 2,-8 -5,-16 -2,-2 0,2 -5,-6 -13,-21 -15,4 -22,-23 -12,0 -11,-1 -21,-4 -7,-28 -6,-21 -22,-27 7,-11 8,-4 6,-15l-17 7z"/>
   <path class="fil23" d="M430 1727c12,2 7,3 15,-2 7,18 5,5 18,26l11 -3c2,25 12,18 20,27l9 29c10,2 6,-1 12,6 1,2 2,4 4,7 19,21 1,-3 11,15 2,3 4,4 7,8 1,3 -4,3 0,8 1,-1 2,-4 2,-4l6 -3c10,8 7,9 12,17 6,11 5,0 21,17 7,9 12,13 23,16 -4,14 1,5 2,12 0,7 -2,3 -3,4 17,1 9,2 12,5 4,4 5,1 12,5 14,1 46,-9 67,-10 27,-1 46,3 72,7l0 -1c-14,-4 -30,-7 -44,-9 -19,-3 -25,2 -40,-7l-12 -3c4,-13 -2,-3 10,-10 -7,-4 -7,-2 -14,-4 -16,-5 -3,-8 -20,-16 -6,-3 -1,-2 -12,-5l-7 -5c6,-7 4,1 4,-8l-14 -4c-5,-8 -1,-4 -11,-10 -1,-12 2,-11 -7,-17l-4 6c-27,-31 -10,-4 -24,-20 -7,-8 -11,-15 -20,-23 -12,-10 -15,-11 -21,-24 -5,-15 2,-15 -19,-21l4 -3c-10,1 -22,2 -29,-4l29 -4 0 -2c-15,1 -31,1 -47,2 -10,1 -26,9 -35,5z"/>
   <path class="fil24" d="M108 2487c-2,16 11,37 16,53l25 45c12,13 23,30 36,44 13,14 30,25 43,38 22,11 67,43 91,41l11 -2c-9,-14 2,-7 -14,-16 -19,-11 -4,0 -17,-12 -7,-7 -5,-2 -8,-6 -6,-8 2,-9 -18,-20l1 -12c-9,-5 -4,3 -11,-10 -17,-34 -25,-6 -29,-38 -13,0 -11,-2 -14,-6 -10,-15 -19,0 -22,-38 -2,9 2,5 -4,13 -4,-7 -2,-3 -3,-13 -8,10 0,2 -17,-1 3,-2 9,-1 0,-20 -4,0 0,-2 -6,6l-4 -11c-8,-1 2,4 -7,2 -14,-4 3,-5 -14,-15l-6 -4c0,-1 -1,-1 -2,-2l9 -5 -10 -11c-9,4 3,4 -11,4 0,-5 1,-11 -2,-16 -1,-3 -16,-28 -14,-33 -1,20 -3,18 8,32 -8,6 -4,1 -7,13z"/>
   <path class="fil25" d="M765 1642l-54 0 -111 1 -99 1 -37 2 0 0c21,-4 403,-1 459,-1 15,0 23,0 38,2 12,2 11,-2 24,5 7,4 -1,1 6,3 14,5 52,21 52,-4l-20 -1c0,0 0,-1 0,-1 0,1 1,-1 1,-1 0,0 0,-2 0,-2l-5 -3c12,-1 4,1 10,-3 -10,-7 -6,0 -15,-6l11 -6 -15 -6c0,-7 3,2 1,-6 -19,-1 -10,5 -25,-1l-1 -29 -27 0c-1,0 -1,0 -2,0 -3,-9 -1,2 3,-10l-8 -5c-4,-2 -14,-1 -30,-16l7 -12c-17,-9 -12,-5 -23,-4 -32,2 -31,0 -41,-8 -1,0 -3,0 -3,1 -1,1 -2,1 -3,1 -6,2 -2,1 -4,1 -10,1 -30,-9 -36,-2l-18 0c6,14 30,8 42,7l-12 15 19 3c3,6 1,2 2,6 0,1 1,2 1,2 0,1 1,3 1,2 0,0 1,2 2,3l3 -8c6,6 4,4 10,9 -5,2 -2,0 -7,1 -4,0 0,-2 -5,1 11,8 2,8 12,18 -10,8 -2,2 -14,4l6 5 33 5 -6 11c8,5 4,0 13,8l-3 18c-24,0 -45,1 -68,2l-64 -2z"/>
   <path class="fil26" d="M101 2454c-1,12 0,24 7,33 3,-12 -1,-7 7,-13 -11,-14 -9,-12 -8,-32 -2,5 13,30 14,33 3,5 2,11 2,16 14,0 2,0 11,-4l10 11 -9 5c1,1 2,1 2,2l6 4c17,10 0,11 14,15 9,2 -1,-3 7,-2l4 11c6,-8 2,-6 6,-6 9,19 3,18 0,20 17,3 9,11 17,1 1,10 -1,6 3,13 6,-8 2,-4 4,-13 3,38 12,23 22,38 3,4 1,6 14,6 4,32 12,4 29,38 7,13 2,5 11,10l-1 12c20,11 12,12 18,20 3,4 1,-1 8,6 13,12 -2,1 17,12 16,9 5,2 14,16l-11 2c7,6 5,4 14,7l55 8 9 0c0,-9 -6,0 1,-9l6 0c-9,-1 -5,-2 -8,-5 -7,-5 2,0 -10,-4 -9,-4 -34,-33 -43,-42 -7,-7 -10,-5 -16,-13 -19,-25 -20,-16 -39,-40 -6,-9 -1,-3 -7,-8 -19,-15 -13,-20 -32,-32 -11,-7 -17,-21 -28,-29 -12,-9 -36,-42 -45,-33 1,-7 2,-4 0,-9 -5,-10 -10,-12 -19,-19 -6,-4 -7,-10 -12,-16 -5,-5 -10,-4 -14,-11l-7 2c-6,-16 -3,-22 -22,-25 0,12 3,13 -1,24z"/>
   <path class="fil27" d="M657 1987c-3,10 1,5 -7,11 14,6 6,6 25,8 -7,5 -2,0 -4,6 6,4 7,7 8,15l15 3c5,10 8,12 8,25 15,4 14,2 27,14 4,5 5,9 7,17l13 1c-1,17 1,2 13,16 3,2 1,1 3,5 6,10 11,18 18,22 16,7 25,10 26,29 21,10 18,23 31,30 10,6 3,3 14,4l2 13c17,2 3,-1 15,16 0,1 1,2 1,2 1,1 1,2 2,2l6 -17c0,-7 5,-60 1,-60l-4 28c-8,-12 -5,-31 -11,-45l-2 15 -11 -1c-4,-10 -3,-14 -16,-16 -1,-11 1,-7 -6,-14l-5 -4c-4,-4 -15,-19 -23,-22 3,-13 4,0 4,-12 -17,-2 -20,-9 -32,-19 -12,0 -16,3 -17,-7 7,6 2,5 11,4 -7,-6 -2,-3 -7,-9 -4,-4 -5,-3 -9,-7 -9,-8 -3,-10 -18,-12 -2,-19 -6,-7 -15,-21 -15,-23 -10,-5 -14,-19l13 -4c5,0 8,0 13,0 -17,-4 -60,-4 -75,3z"/>
   <path class="fil28" d="M110 1750c-2,10 1,4 -5,9 -4,4 0,-4 -2,4 -1,1 -2,5 -2,6 -2,9 -2,5 0,14l-4 50c6,-8 2,-5 8,-12l13 2c2,3 4,8 4,8 7,13 10,1 10,19 13,1 6,1 11,5l20 18c12,7 6,2 15,13l11 14 11 0c3,7 6,8 11,13l-1 59 1 87 1 46 0 29 1 63 1 48 0 46 0 41c-1,18 0,60 9,74 0,-37 -12,-88 -4,-136 3,-14 0,-19 -1,-32 -2,-14 1,-21 2,-33 4,-47 -3,-294 1,-319 1,-11 5,-23 2,-34l-4 -11c-9,8 -13,-4 -20,-9 -9,-9 -12,-3 -12,-19 -24,0 -27,-19 -33,-25 -16,-16 -13,-8 -28,-31 1,9 -1,5 -7,8 -5,-10 0,-11 -9,-15z"/>
   <path class="fil29" d="M289 2272l0 -2 11 0c1,2 5,6 6,8l9 11c1,0 1,1 1,1l9 7c8,6 6,9 12,13 8,6 -1,-3 8,6l20 18c10,8 0,6 17,21 2,2 4,5 6,7l26 24c12,9 5,4 13,14 5,8 2,0 18,20l52 51c6,7 3,6 2,7 9,-1 4,-2 13,2 1,1 10,8 10,8l19 23c1,0 1,1 1,1 3,3 2,2 5,5 11,10 2,0 8,11 5,9 2,1 9,8 2,2 5,7 8,12l41 -1 -6 -9c5,5 7,0 10,-3 -24,-6 -15,3 -38,-23 -8,-9 -4,-17 -22,-18 -2,-17 -2,-1 -16,-21l-11 -10c-4,-4 -2,-1 -3,-5l-2 -7c-15,-4 -6,0 -18,-14 0,0 0,-1 -1,-1 -4,-5 0,-2 -7,-7 -14,-10 -6,1 -20,-17 -7,-8 -4,-1 -12,-11 0,0 0,-1 -1,-2 0,0 -1,-1 -1,-1 -4,-5 -1,-2 -4,-4l-38 -40 -12 -1c0,0 0,-1 0,-1 -7,-13 -5,1 -11,-11 -8,-14 1,-12 -16,-24l-11 -12c-4,-4 -9,-14 -14,-17 -12,-10 3,7 -16,-14 -1,-1 -7,-8 -7,-9 -8,-7 -5,-1 -9,-6 -2,-1 -6,-8 -6,-9 -9,-8 -3,0 -11,-5 -12,-7 2,-11 -16,-12l-3 -27 -2 0 0 66z"/>
   <path class="fil30" d="M96 2384l3 67 -2 3 4 0c4,-11 1,-12 1,-24 19,3 16,9 22,25l7 -2c4,7 9,6 14,11 5,6 6,12 12,16 9,7 14,9 19,19 2,5 1,2 0,9 9,-9 33,24 45,33 11,8 17,22 28,29 19,12 13,17 32,32 6,5 1,-1 7,8 19,24 20,15 39,40 6,8 9,6 16,13 9,9 34,38 43,42 12,4 3,-1 10,4 3,3 -1,4 8,5l-6 0c-7,9 -1,0 -1,9l58 0 -1 -4c-5,-7 -16,-5 -28,-7 -1,-12 3,-10 -4,-4 -4,-15 -3,0 -8,-12l0 -4c-3,-14 -6,-10 -15,-16 -14,-8 -15,-15 -13,-13 -15,-4 -4,-1 -14,-11 -22,-22 -6,-10 -20,-19 -1,-1 -9,-8 -11,-10l-22 -16c-7,-6 -8,-16 -9,-17 0,0 0,-1 -1,-1l-10 -4c-7,-11 -2,-5 -11,-8 -10,-4 -6,-8 -16,-17 -1,0 -3,-2 -3,-2 -8,-7 2,-6 -17,-10l1 -7 -15 -7c4,-9 1,-9 -1,-13l-35 -34c-2,-2 -6,-4 -8,-6 -5,-5 -3,-5 -12,-13 -1,-1 -12,-11 -13,-12l-8 -9c-9,-8 0,-4 -8,-9 -2,-1 -6,-3 -10,-3l1 -12c0,1 -1,5 -9,-2 -6,-5 -4,3 -6,-10l-11 -2c-1,-5 -6,-15 -8,-17 -6,-6 -8,3 -8,-11l-6 3z"/>
   <path class="fil31" d="M289 2121c0,12 7,47 3,51 -1,-11 3,-14 4,-24 8,8 4,11 12,20 6,6 12,9 20,12l-1 8c7,-6 1,-3 7,5 0,0 1,0 1,1l5 8c9,2 15,5 22,7 2,16 8,13 18,21 9,7 -3,6 17,23 0,0 2,2 3,3l12 14c6,8 15,11 17,22 16,-4 23,19 26,23 7,8 3,0 14,7 7,5 16,23 25,31 6,4 9,4 16,5 0,13 2,10 8,15 6,6 12,12 23,15 1,13 9,21 20,26 14,6 9,10 22,23 5,5 11,5 14,10 5,6 1,5 11,13 12,10 16,7 21,24 11,3 21,8 27,18 12,22 9,5 16,15 2,4 1,7 4,11 11,17 0,-10 16,18l16 0 11 -10c-8,-2 -8,-1 -13,-6 -13,-16 -3,-4 -11,-10 -9,-7 -6,-16 -19,-19l2 -11 -12 2c-7,-18 -36,-40 -38,-42l-28 -20c0,0 -1,-1 -3,-3 -5,-5 -7,-7 -12,-11 8,-2 4,1 6,-6 -25,-7 -13,-15 -13,-16l-14 -1c-2,-5 -3,-7 -6,-11 -12,-15 -19,-6 -32,-26l6 -4 -19 -19 -2 6c-18,-1 -6,-3 -23,-26l-24 -20c-11,-10 -7,-12 -14,-21 -4,-3 -11,4 -19,-7 -5,-7 -5,-13 -14,-18 -1,0 -9,-3 -10,-4l-6 -7c-4,-4 -8,-2 -12,-21l-12 -4 2 -11 -6 -15c-7,-1 -9,0 -14,-4 -5,-4 -5,-9 -7,-11 -3,-4 1,0 -4,-3 -12,-9 -17,-12 -30,-29 -8,-11 -10,-6 -18,-19 -6,6 -4,3 -5,12 -1,-17 0,-7 -6,-10z"/>
   <path class="fil32" d="M289 2206l2 0c-3,-10 -2,-16 1,-26 7,2 2,-4 6,5l5 -6c-6,24 8,-18 17,26 6,-3 5,0 6,-9l1 14c13,10 2,-1 9,12 5,8 2,5 14,7 2,13 -1,7 6,9 2,10 -3,-5 -1,6 11,6 4,1 11,9 4,4 5,4 11,7 12,7 1,-1 8,10 4,7 23,19 28,28 9,15 34,32 47,46 5,5 1,4 7,10 11,12 9,1 21,18l29 28c14,9 0,-2 10,12 1,1 2,2 3,3 13,15 8,12 22,23 24,18 16,20 28,26 19,11 -6,-2 19,19 20,17 18,22 26,28 19,15 14,20 29,25 0,8 4,4 -3,8l10 2 57 -1 0 1 -10 0 -16 0c-16,-28 -5,-1 -16,-18 -3,-4 -2,-7 -4,-11 -7,-10 -4,7 -16,-15 -6,-10 -16,-15 -27,-18 -5,-17 -9,-14 -21,-24 -10,-8 -6,-7 -11,-13 -3,-5 -9,-5 -14,-10 -13,-13 -8,-17 -22,-23 -11,-5 -19,-13 -20,-26 -11,-3 -17,-9 -23,-15 -6,-5 -8,-2 -8,-15 -7,-1 -10,-1 -16,-5 -9,-8 -18,-26 -25,-31 -11,-7 -7,1 -14,-7 -3,-4 -10,-27 -26,-23 -2,-11 -11,-14 -17,-22l-12 -14c-1,-1 -3,-3 -3,-3 -20,-17 -8,-16 -17,-23 -10,-8 -16,-5 -18,-21 -7,-2 -13,-5 -22,-7l-5 -8c0,-1 -1,-1 -1,-1 -6,-8 0,-11 -7,-5l1 -8c-8,-3 -14,-6 -20,-12 -8,-9 -4,-12 -12,-20 -1,10 -5,13 -4,24 4,-4 -3,-39 -3,-51l1 0 -1 85z"/>
   <path class="fil33" d="M509 2548l63 0c-3,-5 -6,-10 -8,-12 -7,-7 -4,1 -9,-8 -6,-11 3,-1 -8,-11 -3,-3 -2,-2 -5,-5 0,0 0,-1 -1,-1l-19 -23c0,0 -9,-7 -10,-8 -9,-4 -4,-3 -13,-2 1,-1 4,0 -2,-7l-52 -51c-16,-20 -13,-12 -18,-20 -8,-10 -1,-5 -13,-14l-26 -24c-2,-2 -4,-5 -6,-7 -17,-15 -7,-13 -17,-21l-20 -18c-9,-9 0,0 -8,-6 -6,-4 -4,-7 -12,-13l-9 -7c0,0 0,-1 -1,-1l-9 -11c-1,-2 -5,-6 -6,-8l-11 0c2,18 0,21 8,35 4,8 3,8 6,12 5,9 8,-1 5,16 1,-2 -5,-5 7,1 1,1 3,1 5,3 12,7 8,13 23,23 1,1 13,8 14,9 10,9 1,6 10,13 5,3 11,8 13,10 4,3 3,3 6,6l17 20c12,12 22,20 31,34l24 24c9,13 5,-3 18,16 13,19 11,15 21,16 0,12 -3,3 5,11 30,25 19,1 24,22 -6,4 -4,4 -17,4l0 3z"/>
   <path class="fil34" d="M525 2186c3,-14 -3,-11 0,-25 1,-3 1,-1 2,-4l2 -3c11,21 0,5 16,21 4,4 14,16 14,16 24,20 26,29 42,32 2,12 12,18 21,27l49 52c3,4 1,2 6,6l22 17c-3,10 1,1 -4,8l25 3c-10,8 -25,3 -39,6 6,9 59,-1 70,-3 -6,-1 1,7 -6,-3 6,-9 6,-4 6,-13l-9 5c-28,-20 17,-2 -20,-21 -3,-10 -2,-16 -10,-21 -17,-9 -6,-6 -13,-15 -4,-5 -2,1 -9,-6 -8,-7 0,-3 -6,-7l-19 -10c-4,-27 -38,-32 -40,-52 -8,6 -2,1 -14,-8 -13,-9 -19,-24 -10,-23 -12,2 -15,-1 -23,-8 -5,-4 -6,-7 -7,-8l-16 -12c-10,-9 -16,-5 -19,-28l-5 0c-7,10 -14,72 -6,77z"/>
   <path class="fil35" d="M96 2307c5,3 6,4 11,8 10,9 8,8 16,21 7,12 6,3 20,15 6,5 2,3 8,10 6,6 18,11 11,19 10,2 23,8 27,12 19,21 16,15 17,29 6,2 17,9 21,12l-3 -16c1,-4 2,-2 1,-7 -2,-8 1,-1 -2,-4 -9,-14 -10,-56 -9,-74 -4,-3 -7,-1 -6,-17 1,4 -2,6 -6,10 -3,-4 -3,0 -4,-14 -7,6 -11,-4 -14,-11 -6,-2 0,0 -9,-1 -5,-6 -7,-17 -24,-20 1,-14 3,-5 -2,-10 -10,-10 -9,-7 -16,-16 0,0 -3,-4 -3,-4 -4,-6 0,-1 -3,-4l-8 -10c-6,-7 -4,1 -10,-10 -6,-12 9,4 -13,-17l0 99z"/>
   <path class="fil36" d="M376 2596c13,10 39,18 56,21l46 4 167 1 7 0 81 2 38 1 35 1 119 2 1 14 10 3 13 20c0,1 2,2 3,3 15,15 4,5 14,11 5,3 6,7 13,12 9,6 7,8 7,20l18 2 -9 9c24,-1 42,-5 65,-10l3 -2 3 -10c-12,-15 -38,-34 -51,-52 -8,-11 1,-5 -9,-11 -7,-4 -20,-13 -15,-21 -2,0 -4,1 -7,0 0,0 -1,-1 -2,-1l-4 -4c8,-2 9,-2 16,-5 8,-3 7,-5 14,1l13 -11c4,-2 10,-4 12,-5 -1,0 -36,15 -69,21 -13,2 -5,4 -17,5l-261 2c-14,-2 -6,-1 -19,0 -16,2 -27,-2 -43,-2 -17,0 -28,3 -43,2 -10,0 -15,-2 -21,-2 -6,0 -13,2 -23,2 -7,0 -16,1 -23,0l-18 0c-8,0 -10,-2 -20,-2 -45,-1 -11,-1 -43,-6 -16,-2 -47,-14 -57,-15z"/>
   <path class="fil21" d="M708 2546l10 0c15,1 81,5 88,-6 -6,7 -22,0 -30,-2 6,-5 5,-5 15,-5l-17 -5c-7,-4 -2,-3 -7,-8l-16 -12c-3,-3 -3,-3 -6,-8 -8,-13 0,-9 -17,-13l-1 -11c-16,-1 -4,-3 -18,-12 -9,-5 -9,-7 -17,-15 -7,-6 -11,-6 -14,-9l11 -6c-33,0 -26,2 -31,-6 1,-1 2,-2 2,-2l34 -5 4 0c-24,-1 -31,1 -38,-9l13 0 -5 -3c-13,1 -28,-3 -40,-6 -11,-3 -23,-11 -35,-10 -11,-4 -30,-15 -38,-24 0,-4 1,-3 -2,-2l-21 -15 -6 4c13,20 20,11 32,26 3,4 4,6 6,11l14 1c0,1 -12,9 13,16 -2,7 2,4 -6,6 5,4 7,6 12,11 2,2 3,3 3,3l28 20c2,2 31,24 38,42l12 -2 -2 11c13,3 10,12 19,19 8,6 -2,-6 11,10 5,5 5,4 13,6l-11 10z"/>
   <path class="fil37" d="M320 1815c4,8 10,4 13,18l9 -3c-1,1 -1,4 -1,5l12 13c4,3 0,0 4,3l14 18c4,5 1,3 3,5 5,7 9,7 20,10 1,4 -8,-2 3,8 3,2 9,6 14,7 -3,8 -2,-1 -4,9 21,8 15,7 20,13 0,1 3,5 3,5 9,9 4,-1 6,12 10,3 5,3 15,4l5 14 15 1c0,1 1,5 1,5l15 22c7,4 5,-2 10,5 2,3 4,13 5,17l34 -37 -7 -5c-12,6 6,-6 -12,0 -10,-19 -9,-13 -17,-20 0,0 -1,-1 -2,-2l-3 -2c-11,-8 -13,-10 -15,-26 -5,-1 -10,-4 -13,-7 -6,-6 1,-5 -11,-7l-4 -16 -27 -5 -1 -14c-14,-2 -8,-5 -18,-15 -13,-12 -6,-11 -20,-14l2 -11 -10 -4 -1 -11c-14,-5 -7,-1 -14,-12 -5,-8 -3,-2 -14,-13l3 -8c-12,5 -26,26 -32,38z"/>
   <path class="fil38" d="M290 1998c6,15 5,33 7,51l78 80c15,15 28,12 22,26l9 4c34,19 17,42 29,47 3,-5 1,-6 2,-14 1,0 2,0 2,1 0,0 5,4 8,-1 -3,-18 1,-61 -5,-74 -9,4 -1,-1 -7,11 -4,-6 -1,-6 -6,-13l-17 -14c-3,-19 -4,-6 -15,-18 -5,-5 4,-2 -11,-5 8,-7 5,-1 -1,-9 -4,-5 -4,-8 -12,-11 -18,-6 -21,-8 -23,-27 -12,-2 -11,-3 -17,-12 -5,-7 -8,-9 -12,-19 -21,-1 -20,-16 -28,-32l-3 29z"/>
   <path class="fil39" d="M860 2365l-24 18c2,11 1,4 -6,15 16,6 15,-1 22,27 10,3 9,4 21,4 7,27 9,2 22,23 5,8 3,4 5,6 7,8 3,3 5,16 19,4 -2,0 19,10l4 25c12,3 17,8 24,18 8,10 -1,5 11,10 6,2 9,1 16,1 8,-2 37,-14 39,-20 0,-13 -12,-13 -23,-14 1,-10 3,-12 -11,-15l-1 -16c-8,-1 -20,-5 -24,-11l-7 -16c-12,-2 -12,-4 -18,-11 -1,0 -1,-1 -2,-1l-6 -7c-16,-27 -16,-4 -17,-26 -5,-2 -9,-3 -12,-5l-17 -19 -12 1 -3 -14 -5 1z"/>
   <path class="fil40" d="M679 1897c15,9 21,4 40,7 14,2 30,5 44,9 2,-13 -5,-4 6,-10 -11,-4 -1,6 -14,-3 -6,-4 -8,-9 -9,-16 -14,-2 -17,-6 -22,-15l-4 -13c-17,-7 -8,0 -14,-14 -6,-2 0,3 -6,-2 -14,-9 -2,-13 -24,-7 2,-12 4,-9 -6,-17 -6,-5 -6,-8 -14,-16 -1,0 -1,-1 -2,-1l-27 -27c3,-3 3,-3 3,-8l-9 0c-7,-13 4,-4 -10,-16 -14,-12 -3,-10 -16,-14l3 -3c-10,-1 -19,-4 -25,-10l-61 -1 0 2c7,-1 25,4 31,6l-4 9 28 26c4,3 6,6 10,9 19,15 20,25 38,32 3,9 -1,4 3,8 16,14 11,16 27,19 0,9 -2,4 4,11 16,17 9,13 17,22l20 18c1,0 2,2 2,1 1,0 2,2 3,3l-12 11z"/>
   <path class="fil37" d="M560 2049c16,4 15,12 16,18 30,4 15,17 36,23l2 12 9 -1 1 17c10,-2 13,-3 24,11 0,0 1,1 1,1 0,0 1,1 1,1 1,0 2,1 2,1 1,0 1,0 2,1 18,10 -3,7 15,16 -2,7 2,1 -4,7l11 1 2 17c8,-3 3,2 7,-7 2,16 0,5 13,16 14,11 -4,6 18,11 8,18 3,4 14,15 0,0 9,19 31,32l17 23 17 4c2,-5 -8,1 4,8 8,5 10,2 12,1 0,25 5,14 8,27l20 -19 -5 -10c-9,0 -15,-4 -21,-8 -24,-20 -6,-14 -27,-32l-10 -9 -1 -16 -12 -1c-1,-9 1,-4 -2,-7l-2 -2c0,0 -1,-1 -1,-1 -8,-7 -8,-4 -16,-8 -10,-5 -6,-8 -13,-12 -7,-4 -7,-1 -14,-2l1 -11 -11 -9c-5,-6 -2,2 -3,-9 -19,-2 -10,-15 -18,-23 -5,-5 -9,-4 -14,-10 -8,-8 0,-2 -10,-7l-3 -15c0,0 -3,-1 -3,-1 -5,-2 -3,-1 -7,-4 5,-5 1,-9 8,-4 -15,2 -10,-2 -17,-9 0,0 0,0 -1,-1 0,0 -4,-3 -5,-3l3 -9 -14 -2c-3,-11 0,-6 -8,-12 -8,-6 -3,-3 -15,-7l2 -18 0 -4 -4 -1c-12,6 -29,29 -36,31z"/>
   <path class="fil41" d="M763 1913l0 1 67 25 6 -6 -24 -29c-6,-5 -5,7 -7,-10 -10,0 -5,1 -9,-2l-18 -20c-4,-3 -3,-2 -5,-5 -4,-4 0,1 -4,-4 -15,-19 -3,-2 -13,-12 -5,-4 -1,-3 -8,-8 -9,-8 -4,1 -11,-10 -16,-21 -14,-15 -20,-23 -4,-4 2,0 -4,-6 -7,-6 -3,0 -8,-3 -11,-5 -15,-11 -19,-14 -5,-6 -7,2 -3,-8 -19,-5 -5,-2 -16,-8 -4,-2 -6,3 -4,-8l-12 -3c-2,-15 -5,-28 -22,-31l3 -9 -59 1c6,6 15,9 25,10l-3 3c13,4 2,2 16,14 14,12 3,3 10,16l9 0c0,5 0,5 -3,8l27 27c1,0 1,1 2,1 8,8 8,11 14,16 10,8 8,5 6,17 22,-6 10,-2 24,7 6,5 0,0 6,2 6,14 -3,7 14,14l4 13c5,9 8,13 22,15 1,7 3,12 9,16 13,9 3,-1 14,3 -11,6 -4,-3 -6,10z"/>
   <path class="fil42" d="M293 1969c8,16 7,31 28,32 4,10 7,12 12,19 6,9 5,10 17,12 2,19 5,21 23,27 8,3 8,6 12,11 6,8 9,2 1,9 15,3 6,0 11,5 11,12 12,-1 15,18l17 14c5,7 2,7 6,13 6,-12 -2,-7 7,-11 6,13 2,56 5,74 2,12 -1,9 8,15l0 -15c-6,-17 1,-38 -4,-56l6 -44c-5,-11 -29,-36 -39,-41 -10,-6 -11,-8 -17,-17 -6,-8 2,-5 -11,-6 -2,-8 0,-7 -6,-13 -1,-1 -4,-4 -5,-5l-16 -15c-6,-6 -1,-6 -10,-11l7 -3c-17,-3 -4,-4 -17,-11 -14,-7 -16,-11 -25,-19l-14 -22 -3 9c-6,-12 -3,-4 -8,-5l0 36z"/>
   <path class="fil43" d="M288 1910l5 -13c35,6 27,14 40,26 7,6 4,-3 4,9 13,2 7,6 13,-1 2,8 12,17 20,22 10,7 4,4 10,11 4,5 6,3 13,6 4,6 3,10 8,15l12 12c8,8 3,-2 11,11 5,8 1,2 11,8l1 12c12,6 20,8 22,23 8,0 7,1 14,5l2 -4 22 -38c-5,-2 -3,-1 -6,-4 -4,-3 0,-1 0,-1l-11 5c-21,-16 -17,-23 -38,-30 -3,-11 -7,-16 -17,-24 -3,-3 -3,-2 -8,-5l-26 -30c-13,-12 -6,-10 -32,-29 -9,-6 -2,2 -7,-6 -8,-12 2,-5 -15,-10 -4,-16 -2,-10 -15,-18l1 -16 -7 8c-7,-7 -3,-6 -11,-8 -10,10 -15,48 -16,64z"/>
   <path class="fil41" d="M935 2057c-1,8 -1,5 2,14 1,2 3,6 3,7l4 6c8,6 3,4 8,14 8,3 10,8 15,14 8,10 6,2 14,15 7,12 5,3 12,10 14,13 -3,3 18,11 14,32 30,31 30,31 9,7 -10,3 31,31l4 22c1,0 9,2 9,2l10 7c4,3 8,4 9,16l2 -7 9 3 -2 -65c-7,3 -1,-1 -8,8 -8,-5 -4,-5 -15,-7l-3 -10c-24,-10 -16,-18 -39,-37 -10,-7 -4,-5 -7,-11 -7,-4 -13,-5 -17,-11 -7,-10 -1,-11 -16,-12 -2,-13 -1,-8 -10,-16l-19 -19c-5,-6 -11,-5 -8,-12 -15,-3 -11,1 -14,-7 -10,1 -5,-1 -10,6 0,-9 -1,-5 4,-10 -9,-7 -13,-15 -20,-25l6 -2c-18,-2 -5,-5 -24,-9 6,15 18,26 22,43z"/>
   <path class="fil44" d="M605 2008l-9 10 4 1 0 4c12,2 3,-1 19,8 9,6 0,-1 9,11l5 8c4,0 3,6 5,-5l2 13c11,3 11,4 21,3 -9,10 7,11 12,14 6,3 6,10 14,15 0,22 4,32 26,34 3,14 10,5 1,11 18,4 -1,3 12,11 4,2 10,4 16,8 4,-1 1,6 6,-4l2 11 13 7 -1 14c6,4 4,2 12,4 -1,3 0,6 6,18l26 5 1 17c11,8 13,5 15,22 9,-3 3,-3 12,0l2 -9c3,6 -1,2 4,7 1,6 0,12 2,17 3,9 5,-1 4,13 9,-8 21,-29 23,-40 -23,-3 -7,2 -29,-16l-17 -19c-5,-5 0,-4 -8,-8 -10,-7 -11,-3 -10,-15 -16,-2 -9,0 -19,-12 -11,-13 -6,-11 -9,-15 -3,-4 -32,-10 -16,-19 -13,-3 -6,-1 -15,-8 -22,-17 0,-6 -23,-23 -9,-8 -4,-6 -18,-7 -2,-13 -8,-21 -17,-30 -7,-6 -4,2 -19,-17 -7,-9 -4,-7 -18,-10 -2,-20 -25,-27 -30,-33 9,-6 6,0 13,-10 -10,-2 -8,-1 -18,4 -9,4 -11,3 -11,10z"/>
   <path class="fil45" d="M378 1755c8,1 16,14 17,23l12 3c11,16 11,5 17,15 7,11 -2,2 3,10 2,3 7,6 9,9 7,6 12,8 17,16 5,9 19,8 8,17 13,2 19,10 31,21 6,7 4,8 12,14 4,3 11,7 8,14 13,2 8,0 15,9l35 36 12 -1 29 -13c-10,-4 -8,-1 -20,-2 1,-7 3,-11 -4,-15 -1,-1 -6,-2 -12,-10 0,0 -1,-1 -1,-1l-13 -15c-1,0 -2,-2 -3,-2l-11 -13c-5,-4 -1,0 -7,-5 -9,-7 -3,-6 -9,-10 -6,-4 0,3 -8,-4l-11 -15c-1,-3 -1,-5 -1,-8 -4,1 -6,-1 -11,-5 -8,-4 -6,1 -8,-10 -17,-2 0,-3 -16,-8l4 -5 -25 -24c-10,-7 -32,-30 -36,-40l-33 19z"/>
   <path class="fil34" d="M288 1910c-1,41 -2,461 2,465l-1 -12 0 -91 0 -66 1 -85 0 -123 3 -29 0 -36c5,1 2,-7 8,5l3 -9 14 22c9,8 11,12 25,19 13,7 0,8 17,11l-7 3c9,5 4,5 10,11l16 15c1,1 4,4 5,5 6,6 4,5 6,13 13,1 5,-2 11,6 6,9 7,11 17,17 10,5 34,30 39,41l15 -36c-7,-4 -6,-5 -14,-5 -2,-15 -10,-17 -22,-23l-1 -12c-10,-6 -6,0 -11,-8 -8,-13 -3,-3 -11,-11l-12 -12c-5,-5 -4,-9 -8,-15 -7,-3 -9,-1 -13,-6 -6,-7 0,-4 -10,-11 -8,-5 -18,-14 -20,-22 -6,7 0,3 -13,1 0,-12 3,-3 -4,-9 -13,-12 -5,-20 -40,-26l-5 13z"/>
   <path class="fil46" d="M289 2363l3 -11c11,4 1,3 13,0l16 20c1,1 1,1 1,2l24 22c9,5 21,16 21,27l11 2c3,13 -2,5 3,13 10,17 7,12 31,20 2,10 5,7 1,15l9 7c6,-12 3,-5 7,-4 9,17 -5,8 12,13l-4 5c10,7 4,8 11,14 8,8 8,6 19,9 -6,9 -5,3 -3,7 1,0 1,1 1,1 11,14 -6,0 6,6 10,4 13,-4 11,16l-24 -4c1,6 44,5 51,5l0 -3c13,0 11,0 17,-4 -5,-21 6,3 -24,-22 -8,-8 -5,1 -5,-11 -10,-1 -8,3 -21,-16 -13,-19 -9,-3 -18,-16l-24 -24c-9,-14 -19,-22 -31,-34l-17 -20c-3,-3 -2,-3 -6,-6 -2,-2 -8,-7 -13,-10 -9,-7 0,-4 -10,-13 -1,-1 -13,-8 -14,-9 -15,-10 -11,-16 -23,-23 -2,-2 -4,-2 -5,-3 -12,-6 -6,-3 -7,-1 3,-17 0,-7 -5,-16 -3,-4 -2,-4 -6,-12 -8,-14 -6,-17 -8,-35l0 2 0 91z"/>
   <path class="fil39" d="M553 2060l-15 29 10 13c20,6 6,4 16,12 3,3 14,9 17,11l21 33 14 2c5,15 7,11 18,20 4,4 0,1 3,4 18,19 8,12 14,20 10,13 2,-8 12,16 14,7 6,2 19,4 3,11 6,15 18,15 0,15 3,15 17,17 2,17 2,5 9,16 5,8 1,8 15,11l3 12c13,0 13,-3 8,-2 27,18 14,50 47,25 6,-4 6,-5 12,-6l-13 -10c0,-1 0,-1 -1,-1l-7 -6c-5,-2 -11,3 -28,-20 -5,-6 5,0 -6,-7l-15 -13c-20,-15 -17,-18 -28,-26l-16 -13c-7,-7 -9,-17 -13,-22 -17,-17 -8,-13 -22,-16 -3,-6 -3,-11 -8,-14 -10,-6 -4,3 -28,-20l-17 -21c-1,-1 -7,-5 -8,-5 -8,-10 3,-4 -10,-15 -24,-19 -15,-18 -29,-21l2 -8 -9 -4c0,0 -1,0 -2,-1 5,-9 5,-4 3,-12l-3 3z"/>
   <path class="fil47" d="M501 1644l99 -1 -27 -1c-9,-13 -10,-6 -17,-23l-13 -3c-4,-28 -7,-6 -17,-29l-14 -1c-2,-15 -1,-6 -9,-17 -3,-4 -3,-5 -5,-8 -6,-12 -2,-5 -7,-8l-25 -24 -62 -2 -20 0c5,5 13,6 20,8 -3,13 -3,-1 -4,12l23 7c2,10 0,3 0,13 8,9 6,2 13,10 12,14 5,5 14,9 6,4 0,1 5,5 8,8 13,11 23,13 -1,6 -4,6 6,22 4,5 12,12 17,18z"/>
   <path class="fil29" d="M701 2723l-46 0 -81 1 -50 -1 -69 0 -58 0 -9 0 606 0 -69 1 -62 -2 -27 -1 -11 -11c-4,-4 -6,-8 -8,-15 -9,4 -10,-1 -19,-9l-17 -15c-4,-7 -4,-13 -11,-18 -12,-9 -5,3 -16,-14l-15 -2c7,-6 4,-1 7,-7 -7,-4 -5,0 -13,-6l-81 -2c2,7 18,28 36,31 1,5 1,13 6,17 5,5 8,0 9,13l14 2c3,8 6,11 12,16 21,18 -2,11 47,18 -18,3 -58,7 -75,4z"/>
   <path class="fil48" d="M97 1912l4 45c24,8 -1,-3 19,12 11,8 22,9 24,28 12,2 14,3 24,20 4,7 -1,2 5,8 30,28 11,19 22,30l2 -16 6 19 8 1 -1 -87c-6,-6 -4,-2 -5,-11 0,16 4,11 -3,21l-7 -13c-3,-3 -2,0 -4,-5 0,0 -1,-7 -1,-7 -6,4 -9,4 -4,-5l-9 2 -2 -12c-3,12 1,5 -6,7 -3,-25 -12,-13 -29,-28l2 -14c-5,-3 -2,0 -5,-5 -40,-2 -17,-17 -37,-21l-3 31z"/>
   <path class="fil45" d="M634 1994c-7,10 -4,4 -13,10 5,6 28,13 30,33 14,3 11,1 18,10 15,19 12,11 19,17 9,9 15,17 17,30 14,1 9,-1 18,7 23,17 1,6 23,23 9,7 2,5 15,8 -16,9 13,15 16,19 3,4 -2,2 9,15 10,12 3,10 19,12 -1,12 0,8 10,15 8,4 3,3 8,8l17 19c22,18 6,13 29,16l5 -10c-1,0 -1,-1 -2,-2 0,0 -1,-1 -1,-2 -12,-17 2,-14 -15,-16l-2 -13c-11,-1 -4,2 -14,-4 -13,-7 -10,-20 -31,-30 -1,-19 -10,-22 -26,-29 -7,-4 -12,-12 -18,-22 -2,-4 0,-3 -3,-5 -12,-14 -14,1 -13,-16l-13 -1c-2,-8 -3,-12 -7,-17 -13,-12 -12,-10 -27,-14 0,-13 -3,-15 -8,-25l-15 -3c-1,-8 -2,-11 -8,-15 2,-6 -3,-1 4,-6 -19,-2 -11,-2 -25,-8 8,-6 4,-1 7,-11l-23 7z"/>
   <path class="fil17" d="M923 1885c-4,-16 -4,-27 5,-41 7,-13 22,-20 24,-22 8,-9 10,-6 27,-6 -7,-6 1,7 -8,-4 -7,-8 2,-3 -9,-11 7,-5 5,-2 6,-11 -15,2 -5,0 -16,11l6 7c-10,-8 -5,-3 -9,-1 -4,2 0,3 -12,3l2 -21 -10 1c16,-11 -1,-3 18,-2 -4,-12 -5,-10 -18,-9 13,-5 5,-2 3,-8 -11,3 -6,1 -14,8 -8,-14 -3,1 -9,-9 4,-11 5,1 10,-13 0,0 -1,-1 -2,-1l-8 -5c0,0 0,-1 0,-1 0,-1 -1,-2 -1,-2 -5,5 -3,5 -10,6 9,-7 6,-3 5,-12 -4,1 -3,-6 -6,4l-2 -11c-32,-7 -7,-6 -28,-8 -8,-1 -22,0 -31,0l-1 26 9 4c-12,6 -5,-1 -8,7l33 -1 -7 10 7 4 -3 19c10,0 12,-1 16,-5 0,12 0,6 -14,8l9 6 -16 1c6,7 5,10 16,9 -9,-4 -4,2 -7,-6l17 0c1,7 1,10 5,15 2,1 7,4 7,4l5 6c-1,1 -1,11 -14,-3 -15,17 -4,1 -16,6 11,3 8,-1 8,13 24,-1 4,-7 18,-3 10,2 4,9 3,19l6 -8c0,0 1,-1 1,-1 2,27 -1,19 8,19 0,7 -8,1 5,9z"/>
   <path class="fil49" d="M556 2057c2,8 2,3 -3,12 1,1 2,1 2,1l9 4 -2 8c14,3 5,2 29,21 13,11 2,5 10,15 1,0 7,4 8,5l17 21c24,23 18,14 28,20 5,3 5,8 8,14 14,3 5,-1 22,16 4,5 6,15 13,22l16 13c11,8 8,11 28,26l15 13c11,7 1,1 6,7 17,23 23,18 28,20l7 6c1,0 1,0 1,1l13 10 8 -8c-3,-13 -8,-2 -8,-27 -2,1 -4,4 -12,-1 -12,-7 -2,-13 -4,-8l-17 -4 -17 -23c-22,-13 -31,-32 -31,-32 -11,-11 -6,3 -14,-15 -22,-5 -4,0 -18,-11 -13,-11 -11,0 -13,-16 -4,9 1,4 -7,7l-2 -17 -11 -1c6,-6 2,0 4,-7 -18,-9 3,-6 -15,-16 -1,-1 -1,-1 -2,-1 0,0 -1,-1 -2,-1 0,0 -1,-1 -1,-1 0,0 -1,-1 -1,-1 -11,-14 -14,-13 -24,-11l-1 -17 -9 1 -2 -12c-21,-6 -6,-19 -36,-23 -1,-6 0,-14 -16,-18l-4 8z"/>
   <path class="fil48" d="M863 2722l62 2c9,-11 19,-3 31,-5 8,-2 4,-2 6,-5 -14,-3 -15,-1 -26,-7l-1 -18c-6,-3 -5,-1 -8,-7 4,11 3,3 0,11 -8,-3 -11,-5 -14,-14l-5 7 -1 -15c-4,3 -1,3 -5,0l-3 -3c-1,0 -1,0 -2,0l-8 -6c-9,-7 -4,-1 -7,-12 -3,-10 1,-2 -8,-10 9,-8 7,-1 5,-7 -2,-4 -68,-7 -73,-7l-35 -1c7,3 11,6 17,9 6,4 11,3 20,7l-10 4c9,7 20,19 19,31 5,-4 7,0 17,2 4,14 10,13 9,22 16,-3 2,-2 13,5 7,4 -10,-5 3,1 16,8 -5,-4 6,3 1,11 4,6 -2,13z"/>
   <path class="fil50" d="M839 2285l7 -9c1,-14 -1,-4 -4,-13 -2,-5 -1,-11 -2,-17 -5,-5 -1,-1 -4,-7l-2 9c-9,-3 -3,-3 -12,0 -2,-17 -4,-14 -15,-22l-1 -17 -26 -5c-6,-12 -7,-15 -6,-18 -8,-2 -6,0 -12,-4l1 -14 -13 -7 -2 -11c-5,10 -2,3 -6,4 -6,-4 -12,-6 -16,-8 -13,-8 6,-7 -12,-11 9,-6 2,3 -1,-11 -22,-2 -26,-12 -26,-34 -8,-5 -8,-12 -14,-15 -5,-3 -21,-4 -12,-14 -10,1 -10,0 -21,-3l-2 -13c-2,11 -1,5 -5,5l-5 -8c-9,-12 0,-5 -9,-11 -16,-9 -7,-6 -19,-8l-2 18c12,4 7,1 15,7 8,6 5,1 8,12l14 2 -3 9c1,0 5,3 5,3 1,1 1,1 1,1 7,7 2,11 17,9 -7,-5 -3,-1 -8,4 4,3 2,2 7,4 0,0 3,1 3,1l3 15c10,5 2,-1 10,7 5,6 9,5 14,10 8,8 -1,21 18,23 1,11 -2,3 3,9l11 9 -1 11c7,1 7,-2 14,2 7,4 3,7 13,12 8,4 8,1 16,8 0,0 1,1 1,1l2 2c3,3 1,-2 2,7l12 1 1 16 10 9c21,18 3,12 27,32 6,4 12,8 21,8l5 10z"/>
   <path class="fil27" d="M941 2250c-2,2 0,-3 -4,7 -3,9 -2,6 -1,12l-1 6c8,2 7,11 12,19 5,-11 -5,-2 2,-15 10,7 1,10 18,21 13,8 15,11 18,23 0,0 1,0 1,0 2,7 -3,-4 7,4 0,0 22,16 26,22 5,11 -1,4 9,10 22,16 10,24 28,26 -1,4 -1,3 -4,6 17,2 -1,-2 19,8 1,21 8,22 13,35 0,-10 -2,-9 5,-14 9,7 5,1 7,11l12 -30c-8,-6 -7,-7 -8,-17l-13 -1c5,-10 -13,-28 -22,-33 -9,-5 -5,-4 -16,-15 0,0 -1,-1 -1,-1 -1,-1 -1,-1 -1,-2 -1,0 -2,-2 -2,-3 -4,-4 -7,-6 -11,-10 -6,-6 -4,-4 -11,-9 -10,-8 -3,-2 -8,-13l-17 -13c-12,-13 -11,-16 -21,-22 -18,-13 -4,-14 -25,-16l-1 -15c-4,8 -2,12 -10,19z"/>
   <path class="fil51" d="M1192 2084l-1 179 2 1c-9,-71 4,-133 1,-179 4,12 2,-2 10,10 1,1 1,1 1,2 2,2 2,0 5,6l10 -3c-4,27 6,11 13,27l17 2c-8,4 -8,5 -10,13 9,0 17,-2 23,2 -9,3 -11,3 -14,12l9 6 1 14c20,-2 11,6 23,-2l2 4 2 -65c-7,-11 -3,-3 -7,-8 -11,-12 -2,-11 -14,-16l14 -3c-11,-2 -22,-4 -27,5 -3,-6 -2,0 5,-8 -16,-12 -7,-8 -5,-22 1,-9 1,3 -2,-8l-5 -15 -10 5 3 -12c-7,-5 -12,-13 -17,-16 -11,12 10,8 -6,16 5,4 12,5 1,9 -8,-11 -1,-6 -3,-15 -9,-3 -7,-1 -8,3l-9 -7 7 -5c-9,-10 4,-7 -10,-8l-1 76z"/>
   <path class="fil52" d="M304 1846c8,2 4,1 11,8l7 -8 -1 16c13,8 11,2 15,18 17,5 7,-2 15,10 5,8 -2,0 7,6 26,19 19,17 32,29l26 30c5,3 5,2 8,5 10,8 14,13 17,24 21,7 17,14 38,30l11 -5c0,0 -4,-2 0,1 3,3 1,2 6,4l6 -8c-1,-4 -3,-14 -5,-17 -5,-7 -3,-1 -10,-5l-15 -22c0,0 -1,-4 -1,-5l-15 -1 -5 -14c-10,-1 -5,-1 -15,-4 -2,-13 3,-3 -6,-12 0,0 -3,-4 -3,-5 -5,-6 1,-5 -20,-13 2,-10 1,-1 4,-9 -5,-1 -11,-5 -14,-7 -11,-10 -2,-4 -3,-8 -11,-3 -15,-3 -20,-10 -2,-2 1,0 -3,-5l-14 -18c-4,-3 0,0 -4,-3l-12 -13c0,-1 0,-4 1,-5l-9 3c-3,-14 -9,-10 -13,-18 -8,7 -14,20 -16,31z"/>
   <path class="fil53" d="M352 1777l-3 8c11,11 9,5 14,13 7,11 0,7 14,12l1 11 10 4 -2 11c14,3 7,2 20,14 10,10 4,13 18,15l1 14 27 5 4 16c12,2 5,1 11,7 3,3 8,6 13,7 2,16 4,18 15,26l3 2c1,1 2,2 2,2 8,7 7,1 17,20 18,-6 0,6 12,0l7 5 8 -7 4 -7c-7,-2 -5,1 -7,-7l-14 -2c-9,-20 -9,-3 -12,-13 -5,-15 -9,-9 -4,-19 -11,-4 -8,-1 -13,-13 -3,-9 -9,-10 -4,-16 -18,-2 -23,-8 -28,-15 -9,-13 -7,1 -12,-16 -16,-8 -4,3 -14,-10 -4,-6 -5,-8 -12,-6 -3,-15 -5,-11 -9,-17 -3,-4 -1,-2 -4,-6 -5,-9 -11,-11 -19,-16l-1 -21c-1,-9 -9,-22 -17,-23 -10,5 -22,13 -26,22z"/>
   <path class="fil54" d="M97 1833l0 79 0 0 3 -31c20,4 -3,19 37,21 3,5 0,2 5,5l-2 14c17,15 26,3 29,28 7,-2 3,5 6,-7l2 12 9 -2c-5,9 -2,9 4,5 0,0 1,7 1,7 2,5 1,2 4,5l7 13c7,-10 3,-5 3,-21 1,9 -1,5 5,11l1 -59c-5,-5 -8,-6 -11,-13l-11 0 -11 -14c-9,-11 -3,-6 -15,-13l-20 -18c-5,-4 2,-4 -11,-5 0,-18 -3,-6 -10,-19 0,0 -2,-5 -4,-8l-13 -2c-6,7 -2,4 -8,12z"/>
   <path class="fil55" d="M574 2724l81 -1c-18,-13 -7,6 -32,-21l-39 -37c-12,-9 -4,1 -12,-14 -5,-8 -9,-8 -13,-12 -8,-8 -1,-2 -5,-8 -5,-5 -2,0 -10,-6 15,-6 50,-4 67,-2l34 -1 -167 -1c-4,5 6,3 -8,5 9,-3 9,1 12,5 0,0 0,0 0,1l3 11 14 3c5,8 3,4 4,12 10,8 7,2 16,14 4,7 7,10 14,8l-2 10c13,0 16,1 21,9 11,17 12,13 7,19 12,0 11,-3 15,6z"/>
   <path class="fil27" d="M430 1727c-7,6 -10,5 -19,9 4,10 26,33 36,40l25 24 -4 5c16,5 -1,6 16,8 2,11 0,6 8,10 5,4 7,6 11,5 0,3 0,5 1,8l11 15c8,7 2,0 8,4 6,4 0,3 9,10 6,5 2,1 7,5l11 13c1,0 2,2 3,2l13 15c0,0 1,1 1,1 6,8 11,9 12,10 7,4 5,8 4,15 12,1 10,-2 20,2 6,-5 14,-4 21,-11 -7,-4 -8,-1 -12,-5 -3,-3 5,-4 -12,-5 1,-1 3,3 3,-4 -1,-7 -6,2 -2,-12 -11,-3 -16,-7 -23,-16 -16,-17 -15,-6 -21,-17 -5,-8 -2,-9 -12,-17l-6 3c0,0 -1,3 -2,4 -4,-5 1,-5 0,-8 -3,-4 -5,-5 -7,-8 -10,-18 8,6 -11,-15 -2,-3 -3,-5 -4,-7 -6,-7 -2,-4 -12,-6l-9 -29c-8,-9 -18,-2 -20,-27l-11 3c-13,-21 -11,-8 -18,-26 -8,5 -3,4 -15,2z"/>
   <path class="fil47" d="M1190 2324c7,13 -3,7 10,19 9,8 13,5 20,10l2 24c0,-10 2,-5 6,-7 12,9 8,20 30,28l2 11 18 4 5 12 4 -9c4,-11 2,-31 0,-44 -5,-10 -4,-18 -7,-27l-13 -13c-8,-9 -8,-5 -13,-10 -4,-3 -1,0 -3,-4l-2 -4c-6,-6 -13,0 -17,-19l-11 -1c-3,-23 -10,-4 -12,-27 -7,10 2,-1 -16,-3l-2 -1 -1 61z"/>
   <path class="fil43" d="M531 2109l5 0c3,23 9,19 19,28l16 12c1,1 2,4 7,8 8,7 11,10 23,8 -9,-1 -3,14 10,23 12,9 6,14 14,8 2,20 36,25 40,52l19 10c6,4 -2,0 6,7 7,7 5,1 9,6 7,9 -4,6 13,15 8,5 7,11 10,21 37,19 -8,1 20,21l9 -5c0,9 0,4 -6,13 7,10 0,2 6,3 21,-7 30,-13 48,-21 -33,25 -20,-7 -47,-25 5,-1 5,2 -8,2l-3 -12c-14,-3 -10,-3 -15,-11 -7,-11 -7,1 -9,-16 -14,-2 -17,-2 -17,-17 -12,0 -15,-4 -18,-15 -13,-2 -5,3 -19,-4 -10,-24 -2,-3 -12,-16 -6,-8 4,-1 -14,-20 -3,-3 1,0 -3,-4 -11,-9 -13,-5 -18,-20l-14 -2 -21 -33c-3,-2 -14,-8 -17,-11 -10,-8 4,-6 -16,-12l-10 -13 -7 20z"/>
   <path class="fil45" d="M1085 2452l11 -21c-2,-10 2,-4 -7,-11 -7,5 -5,4 -5,14 -5,-13 -12,-14 -13,-35 -20,-10 -2,-6 -19,-8 3,-3 3,-2 4,-6 -18,-2 -6,-10 -28,-26 -10,-6 -4,1 -9,-10 -4,-6 -26,-22 -26,-22 -10,-8 -5,3 -7,-4 0,0 -1,0 -1,0 -3,-12 -5,-15 -18,-23 -17,-11 -8,-14 -18,-21 -7,13 3,4 -2,15 -5,-8 -4,-17 -12,-19 -19,33 -10,31 11,43l7 6c4,18 14,21 28,33 9,7 -3,5 13,8 -4,7 7,15 13,20 11,11 1,13 23,16 -1,2 -5,3 7,15l24 23c11,14 10,14 24,13z"/>
   <path class="fil56" d="M454 2719l1 4 69 0 -1 -13c-8,-5 -16,-10 -24,-12 -2,-16 -9,-10 -12,-26 -12,-1 -10,-3 -31,-22 -10,-9 -18,-22 -24,-33 -17,-3 -43,-11 -56,-21 -5,-5 -3,-3 -10,-4l-22 -9 -3 5c17,14 3,6 16,15 17,11 -2,5 17,14 10,5 0,-3 9,10 11,18 11,12 20,24 4,5 17,17 22,14l2 11c11,-2 3,2 14,9 3,3 12,7 14,6 -8,7 -2,8 1,19l16 6 -18 3z"/>
   <path class="fil51" d="M655 1534c3,13 11,4 22,9 -1,8 0,6 -12,7 -7,0 -13,1 -21,0 4,7 7,14 13,3l1 15c20,12 5,-1 18,2 0,20 -1,15 14,14l-2 9c13,7 4,5 13,16 3,-8 0,1 -1,-13l6 4c13,4 5,-2 6,14 1,-1 7,-10 8,1 -1,6 3,2 -6,6l10 13 7 -9 7 6c-1,3 -3,9 -4,10l-23 1 54 0 8 1c9,-10 5,-3 19,-16 0,0 -1,-1 -2,-2 0,0 -1,-1 -2,-1l-4 -4c-3,-2 -3,-3 -6,-5l-9 3c4,0 1,1 6,-4l-22 -23c0,-2 -1,-2 -1,-2 -5,2 -3,2 -6,4l-4 1c-2,-2 -5,-4 -6,-4 -6,-4 -1,0 -1,0 2,-10 5,-9 5,-13 0,-2 1,-2 1,-3 -11,1 -7,-3 -14,7 3,-6 1,-5 -7,-8 8,-5 4,-3 8,-12l2 0c0,0 1,0 1,-1l5 -2c0,-1 -1,-1 -2,-2l-10 -8c-8,6 -6,10 -14,7 9,-5 7,-3 12,-12 10,1 48,1 55,-3 -4,-6 0,-3 -12,-4 -15,0 -32,-3 -45,0 -21,4 -42,-4 -65,-2z"/>
   <path class="fil57" d="M294 1552l15 10c3,2 8,8 12,12l17 19c6,7 1,5 7,11 0,1 1,1 1,1 18,19 11,5 17,17 7,13 21,4 26,23l12 1 -9 5c9,8 6,1 7,10 19,-10 44,-11 65,-15l0 0c-35,-6 -23,-5 -31,-15 -6,-7 -1,5 -7,-8 -6,-13 3,-10 -10,-21l-9 -15c-15,-1 -20,2 -29,-8 -10,-12 -12,-8 -13,-24l10 -4c-42,-7 -18,-3 -35,-13l-46 14z"/>
   <path class="fil58" d="M158 1656c-6,10 -12,21 -20,27 4,2 4,8 14,1 5,13 0,10 11,13 -9,4 -4,-2 -6,7l13 0c4,13 10,5 5,17 21,3 13,1 16,15 0,0 16,11 19,17 1,2 1,5 1,8 15,3 6,5 15,13 16,14 3,-6 17,25l3 -5 26 -41 1 -2c-2,3 2,2 -4,3 -11,-21 -15,-18 -31,-35l-44 -43c-8,-7 -3,-7 -10,-15 -7,-8 -7,-4 -11,-14l-7 3 -8 6z"/>
   <path class="fil59" d="M289 2363l1 12c1,8 0,13 5,19l1 -12c6,6 2,3 6,9 21,31 4,10 23,24l-4 12c10,1 -2,-2 14,-3 13,18 14,4 17,25 10,1 21,11 26,18 6,8 9,-1 5,12 7,2 15,7 19,12 6,6 0,3 7,8 4,3 6,2 12,6l26 21c7,7 5,2 5,14l-7 1c1,4 8,2 13,2l24 4c2,-20 -1,-12 -11,-16 -12,-6 5,8 -6,-6 0,0 0,-1 -1,-1 -2,-4 -3,2 3,-7 -11,-3 -11,-1 -19,-9 -7,-6 -1,-7 -11,-14l4 -5c-17,-5 -3,4 -12,-13 -4,-1 -1,-8 -7,4l-9 -7c4,-8 1,-5 -1,-15 -24,-8 -21,-3 -31,-20 -5,-8 0,0 -3,-13l-11 -2c0,-11 -12,-22 -21,-27l-24 -22c0,-1 0,-1 -1,-2l-16 -20c-12,3 -2,4 -13,0l-3 11z"/>
   <path class="fil33" d="M96 2058l0 59c6,-2 5,-19 5,-26l19 22c4,-5 6,-2 3,-8 4,20 9,-7 14,22 11,-1 7,-9 11,20 12,2 10,1 18,9 10,11 8,4 11,21 23,7 21,15 23,26l13 -6 -1 -63c-4,8 1,4 -5,12 -9,-7 -2,-1 -6,-9 -4,-7 -2,-2 -6,-7l-33 -33c-1,0 -1,-1 -2,-1l-8 -7c-1,0 -1,-1 -2,-1l-20 -21c-5,-5 -9,-8 -13,-13 -7,-8 -4,-9 -15,-10 -5,9 1,7 -6,14z"/>
   <path class="fil60" d="M525 2186c-1,13 2,19 4,32l2 -12c8,2 9,0 8,7 11,-1 7,2 13,-5 1,11 4,17 16,21 -6,5 -5,-3 2,15l13 2c4,9 31,35 41,44 5,5 10,6 16,5 3,8 -3,4 7,9l-7 5c12,5 10,3 11,15 3,-1 7,3 17,4 9,1 10,0 12,10l-21 -1c8,6 11,6 22,5 14,-3 29,2 39,-6l-25 -3c5,-7 1,2 4,-8l-22 -17c-5,-4 -3,-2 -6,-6l-49 -52c-9,-9 -19,-15 -21,-27 -16,-3 -18,-12 -42,-32 0,0 -10,-12 -14,-16 -16,-16 -5,0 -16,-21l-2 3c-1,3 -1,1 -2,4 -3,14 3,11 0,25z"/>
   <path class="fil61" d="M340 1538c17,10 -7,6 35,13l-10 4c1,16 3,12 13,24 9,10 14,7 29,8l9 15c13,11 4,8 10,21 6,13 1,1 7,8 8,10 -4,9 31,15l37 -2c-5,-6 -13,-13 -17,-18 -10,-16 -7,-16 -6,-22 -10,-2 -15,-5 -23,-13 -5,-4 1,-1 -5,-5 -9,-4 -2,5 -14,-9 -7,-8 -5,-1 -13,-10 0,-10 2,-3 0,-13l-23 -7c1,-13 1,1 4,-12 -7,-2 -15,-3 -20,-8l-6 0c-8,6 1,2 -11,5 -3,1 -5,1 -9,2 -7,1 -12,2 -18,4z"/>
   <path class="fil62" d="M959 2179l6 13 11 -2 5 16 14 4c-2,7 0,7 -5,6 14,8 0,6 13,12l-5 4c16,-2 27,14 30,17 5,4 7,6 13,10l37 37c6,10 -2,8 8,15 8,6 17,1 21,13l2 29 6 0 0 -67c-5,4 -3,6 -8,12 -1,-7 -6,-21 -11,-25 -8,-5 -14,-10 -24,-10 -1,-22 -14,-25 -26,-29 -4,-11 -1,-5 -8,-13 -3,-3 -15,-21 -25,-26 -19,-10 -7,-4 -19,-20 -6,-8 -10,-12 -10,-25l-7 26c-3,-7 -1,-16 -4,-23 -5,-9 -4,1 -13,-16l-1 42z"/>
   <path class="fil63" d="M960 2187l1 5 -2 -13 1 -42c9,17 8,7 13,16 3,7 1,16 4,23l7 -26c0,13 4,17 10,25 12,16 0,10 19,20 10,5 22,23 25,26 7,8 4,2 8,13 12,4 25,7 26,29 10,0 16,5 24,10 5,4 10,18 11,25 5,-6 3,-8 8,-12l0 -33 -9 -3 -2 7c-1,-12 -5,-13 -9,-16l-10 -7c0,0 -8,-2 -9,-2l-4 -22c-41,-28 -22,-24 -31,-31 0,0 -16,1 -30,-31 -21,-8 -4,2 -18,-11 -7,-7 -5,2 -12,-10 -8,-13 -6,-5 -14,-15 -5,-6 -7,-11 -15,-14 2,14 5,27 6,43 2,15 -1,32 2,46z"/>
   <path class="fil59" d="M655 2723l46 0c-4,-11 -10,-18 -23,-20 -2,-12 -3,-10 -11,-16 -26,-19 -24,-36 -43,-40l4 -6c-10,-1 -6,1 -12,-6 -8,-7 2,-1 -9,-7l4 -5c-17,-2 -52,-4 -67,2 8,6 5,1 10,6 4,6 -3,0 5,8 4,4 8,4 13,12 8,15 0,5 12,14l39 37c25,27 14,8 32,21z"/>
   <path class="fil53" d="M201 1608l-14 15c7,5 2,4 12,5l1 11c16,3 8,7 24,18 16,10 1,8 20,20 11,7 21,22 29,32 7,8 5,-1 6,15 8,4 6,-2 9,6 2,0 2,0 5,-2 7,-9 21,-21 32,-26l3 -5c-10,-2 -8,-4 -19,-6 3,-13 -5,-13 -16,-17 -5,-3 -4,-16 -32,-22 3,-20 -7,-13 -17,-27 -4,-7 -3,-10 -7,-16 -6,-9 -5,2 -6,-16l-6 -1c-9,3 -16,11 -24,16z"/>
   <path class="fil55" d="M295 2394c0,18 9,29 14,46 18,28 37,58 68,74 10,4 19,12 31,17 11,5 25,9 37,10l7 -1c0,-12 2,-7 -5,-14l-26 -21c-6,-4 -8,-3 -12,-6 -7,-5 -1,-2 -7,-8 -4,-5 -12,-10 -19,-12 4,-13 1,-4 -5,-12 -5,-7 -16,-17 -26,-18 -3,-21 -4,-7 -17,-25 -16,1 -4,4 -14,3l4 -12c-19,-14 -2,7 -23,-24 -4,-6 0,-3 -6,-9l-1 12z"/>
   <path class="fil34" d="M110 1750c9,4 4,5 9,15 6,-3 8,1 7,-8 15,23 12,15 28,31 6,6 9,25 33,25 0,16 3,10 12,19 7,5 11,17 20,9l4 11c3,-10 8,-32 15,-38l-6 1 -3 -15 -6 9c-8,-12 2,-3 -11,-18 -9,-12 -1,-14 -25,-19 2,-8 3,-3 2,-8l-12 -2c-10,-7 -17,-51 -54,-43l-13 31z"/>
   <path class="fil64" d="M734 2417c-16,-6 -43,-2 -61,-2 7,6 -3,2 10,5l28 0c17,0 15,3 36,0l19 14c2,2 -1,6 13,7 4,19 17,11 23,34l11 0c-4,9 0,-1 10,14 28,38 14,12 30,29 8,10 4,7 14,15l-18 3c21,8 15,-2 18,11l45 -1c-1,-18 -4,-13 -17,-17 -9,-3 -7,-10 -13,-19 -6,-10 -12,-8 -15,-15 0,0 -4,-24 -16,-13 -1,-8 -4,-6 -15,-20 -3,-4 -28,-29 -39,-31 0,-8 -2,-16 -4,-20 -17,-2 -39,6 -59,6z"/>
   <path class="fil65" d="M694 2421l-3 5 25 2c5,6 1,4 5,8 1,2 3,4 6,6 2,2 5,5 7,7 9,9 -1,3 9,10 7,4 5,5 12,12 0,0 1,1 1,1l9 10c6,7 3,2 8,6 4,2 5,6 6,7 8,10 24,13 30,32l26 6c-9,3 -8,-2 -18,5 12,6 14,2 26,4 13,3 7,6 24,5 -3,-13 3,-3 -18,-11l18 -3c-10,-8 -6,-5 -14,-15 -16,-17 -2,9 -30,-29 -10,-15 -14,-5 -10,-14l-11 0c-6,-23 -19,-15 -23,-34 -14,-1 -11,-5 -13,-7l-19 -14c-21,3 -19,0 -36,0l-28 0c-13,-3 -3,1 -10,-5l0 -3 -13 0c7,10 14,8 38,9l-4 0z"/>
   <path class="fil66" d="M881 2149c4,0 -1,53 -1,60l8 0c-1,-26 7,-37 3,-63 -6,-41 -1,-13 -11,-44 -1,-6 -1,-7 -5,-10 -8,-6 -13,-18 -17,-27 -11,-16 -26,-33 -41,-45 -15,-12 -50,-26 -56,-32 2,-6 -7,-2 -9,-2l-15 -2c-5,7 -6,6 -13,6 8,0 20,5 25,11 4,6 2,4 3,10 14,1 22,3 29,11l8 14c7,16 20,19 22,36l19 4c3,9 11,20 19,23 9,3 11,1 16,9 5,11 -3,4 10,12 0,10 -3,19 2,25 -9,-6 1,-7 3,-8l1 12z"/>
   <path class="fil67" d="M865 2364l3 14 12 -1 17 19c3,2 7,3 12,5 1,22 1,-1 17,26l6 7c1,0 1,1 2,1 6,7 6,9 18,11l7 16c4,6 16,10 24,11l1 16c14,3 12,5 11,15 11,1 23,1 23,14 7,-2 11,-4 13,-8 4,-10 3,-14 -4,-20 -14,-13 -3,0 -11,-17l-12 -3 -9 -14c-1,0 -1,-1 -1,-1 -1,-1 -3,-2 -3,-3l-24 -27c-21,-5 -2,0 -20,-16 -7,-5 -14,-18 -34,-28l0 -9c-26,-8 -18,-23 -15,-30l-9 -1 -24 23z"/>
   <path class="fil23" d="M881 2149l-1 -12c-2,1 -12,2 -3,8 -5,-6 -2,-15 -2,-25 -13,-8 -5,-1 -10,-12 -5,-8 -7,-6 -16,-9 -8,-3 -16,-14 -19,-23l-19 -4c-2,-17 -15,-20 -22,-36l-8 -14c-7,-8 -15,-10 -29,-11 -1,-6 1,-4 -3,-10 -5,-6 -17,-11 -25,-11 7,0 8,1 13,-6l-5 0c-5,0 -8,0 -13,0l-13 4c4,14 -1,-4 14,19 9,14 13,2 15,21 15,2 9,4 18,12 4,4 5,3 9,7 5,6 0,3 7,9 -9,1 -4,2 -11,-4 1,10 5,7 17,7 12,10 15,17 32,19 0,12 -1,-1 -4,12 8,3 19,18 23,22l5 4c7,7 5,3 6,14 13,2 12,6 16,16l11 1 2 -15c6,14 3,33 11,45l4 -28z"/>
   <path class="fil46" d="M96 2117l0 59 1 1 3 -38c10,3 10,13 16,19 7,6 16,8 22,17 -3,10 -6,1 -2,9l12 1c-4,11 6,10 12,14 8,5 9,11 18,22 9,9 -1,5 12,8 8,3 11,5 15,14l9 2 -1 -48 -13 6c-2,-11 0,-19 -23,-26 -3,-17 -1,-10 -11,-21 -8,-8 -6,-7 -18,-9 -4,-29 0,-21 -11,-20 -5,-29 -10,-2 -14,-22 3,6 1,3 -3,8l-19 -22c0,7 1,24 -5,26z"/>
   <path class="fil37" d="M1074 2569c4,10 1,6 12,8l1 14c20,2 15,5 18,8l11 17c3,5 1,1 4,4l5 5c3,3 1,0 4,4 14,14 1,8 23,23 6,4 7,4 12,8 8,-4 32,-25 35,-33l-1 -4c-13,7 -6,1 -10,-1 -12,-5 -26,-9 -28,-28 -22,-13 -2,-6 -14,-15 -1,-1 -10,-6 -10,-6 -13,-10 11,0 -26,-21l7 -9 -5 -5c-9,10 -27,28 -38,31z"/>
   <path class="fil68" d="M279 1557c-8,-3 -4,-2 -4,1l-9 6c5,0 4,-1 4,3l-7 10 15 -1c2,14 -2,7 7,15 7,5 9,2 2,7 26,5 6,14 26,27 14,9 17,22 28,29l17 1c3,11 5,11 14,15 9,0 15,-6 27,-9 -1,-9 2,-2 -7,-10l9 -5 -12 -1c-5,-19 -19,-10 -26,-23 -6,-12 1,2 -17,-17 0,0 -1,0 -1,-1 -6,-6 -1,-4 -7,-11l-17 -19c-4,-4 -9,-10 -12,-12l-15 -10 -15 5z"/>
   <path class="fil62" d="M679 1897l12 -11c-1,-1 -2,-3 -3,-3 0,1 -1,-1 -2,-1l-20 -18c-8,-9 -1,-5 -17,-22 -6,-7 -4,-2 -4,-11 -16,-3 -11,-5 -27,-19 -4,-4 0,1 -3,-8 -18,-7 -19,-17 -38,-32 -4,-3 -6,-6 -10,-9l-28 -26 4 -9c-6,-2 -24,-7 -31,-6l-29 4c7,6 19,5 29,4l-4 3c21,6 14,6 19,21 6,13 9,14 21,24 9,8 13,15 20,23 14,16 -3,-11 24,20l4 -6c9,6 6,5 7,17 10,6 6,2 11,10l14 4c0,9 2,1 -4,8l7 5c11,3 6,2 12,5 17,8 4,11 20,16 7,2 7,0 14,4 -12,7 -6,-3 -10,10l12 3z"/>
   <path class="fil23" d="M952 2218l-1 13 1 15c21,2 7,3 25,16 10,6 9,9 21,22l17 13c5,11 -2,5 8,13 7,5 5,3 11,9 4,4 7,6 11,10 0,1 1,3 2,3 0,1 0,1 1,2 0,0 1,1 1,1 11,11 7,10 16,15 9,5 27,23 22,33l13 1c1,10 0,11 8,17l5 -10 -2 -2 4 -36 0 0 -6 0 -4 10 -33 -38c-7,-7 -6,1 -11,-14 -15,-2 -5,1 -14,-12 -5,-9 -15,-8 -12,-16 -16,-3 -20,-11 -22,-26 -26,-5 -44,-46 -61,-39z"/>
   <path class="fil69" d="M529 2218l2 5 -2 5 3 1c9,11 17,30 26,43 9,12 20,23 32,34 8,5 39,22 43,27 4,6 4,5 12,3l14 1 21 1c-2,-10 -3,-9 -12,-10 -10,-1 -14,-5 -17,-4 -1,-12 1,-10 -11,-15l7 -5c-10,-5 -4,-1 -7,-9 -6,1 -11,0 -16,-5 -10,-9 -37,-35 -41,-44l-13 -2c-7,-18 -8,-10 -2,-15 -12,-4 -15,-10 -16,-21 -6,7 -2,4 -13,5 1,-7 0,-5 -8,-7l-2 12z"/>
   <path class="fil56" d="M96 2356c28,1 19,5 32,13 0,0 2,0 3,1 9,4 3,18 28,32l10 8c6,6 1,-1 5,12 18,6 5,-2 14,11 7,9 25,23 35,39l7 -4 10 15 8 0 -3 -12c1,-9 1,-3 -2,-5 -8,-9 -10,-23 -16,-33 -4,-3 -15,-10 -21,-12 -1,-14 2,-8 -17,-29 -4,-4 -17,-10 -27,-12 7,-8 -5,-13 -11,-19 -6,-7 -2,-5 -8,-10 -14,-12 -13,-3 -20,-15 -8,-13 -6,-12 -16,-21 -5,-4 -6,-5 -11,-8l0 49z"/>
   <path class="fil54" d="M925 2724l69 -1 1 -1 9 -9 -18 -2c0,-12 2,-14 -7,-20 -7,-5 -8,-9 -13,-12 -10,-6 1,4 -14,-11 -1,-1 -3,-2 -3,-3l-13 -20 -10 -3 -1 -14 -119 -2c5,0 71,3 73,7 2,6 4,-1 -5,7 9,8 5,0 8,10 3,11 -2,5 7,12l8 6c1,0 1,0 2,0l3 3c4,3 1,3 5,0l1 15 5 -7c3,9 6,11 14,14 3,-8 4,0 0,-11 3,6 2,4 8,7l1 18c11,6 12,4 26,7 -2,3 2,3 -6,5 -12,2 -22,-6 -31,5z"/>
   <path class="fil32" d="M96 2003c13,-12 20,8 31,21 0,0 20,13 26,21 7,11 1,9 0,10 15,-1 15,7 21,14 8,9 9,2 18,17l6 -10 6 32c-4,-6 0,-7 3,-12 3,3 6,1 5,9l-1 -46 -8 -1 -6 -19 -2 16c-11,-11 8,-2 -22,-30 -6,-6 -1,-1 -5,-8 -10,-17 -12,-18 -24,-20 -2,-19 -13,-20 -24,-28 -20,-15 5,-4 -19,-12l-4 -45 0 0 -1 91z"/>
   <path class="fil16" d="M96 2003l0 55c7,-7 1,-5 6,-14 11,1 8,2 15,10 4,5 8,8 13,13l20 21c1,0 1,1 2,1l8 7c1,0 1,1 2,1l33 33c4,5 2,0 6,7 4,8 -3,2 6,9 6,-8 1,-4 5,-12l0 -29c1,-8 -2,-6 -5,-9 -3,5 -7,6 -3,12l-6 -32 -6 10c-9,-15 -10,-8 -18,-17 -6,-7 -6,-15 -21,-14 1,-1 7,1 0,-10 -6,-8 -26,-21 -26,-21 -11,-13 -18,-33 -31,-21z"/>
   <path class="fil57" d="M960 2187c-6,9 -2,23 -8,31 17,-7 35,34 61,39 2,15 6,23 22,26 -3,8 7,7 12,16 9,13 -1,10 14,12 5,15 4,7 11,14l33 38 4 -10 -2 -29c-4,-12 -13,-7 -21,-13 -10,-7 -2,-5 -8,-15l-37 -37c-6,-4 -8,-6 -13,-10 -3,-3 -14,-19 -30,-17l5 -4c-13,-6 1,-4 -13,-12 5,1 3,1 5,-6l-14 -4 -5 -16 -11 2 -6 -13 2 13 -1 -5z"/>
   <path class="fil34" d="M1063 2710c12,-2 35,-9 43,-16 8,-14 -3,-8 -11,-13 -8,-6 -6,-13 -12,-19l-19 -19c-5,-6 -3,-6 -15,-9 -3,-24 -8,-14 -25,-16l5 -10 -21 -1c-7,-6 -6,-4 -14,-1 -7,3 -8,3 -16,5l4 4c1,0 2,1 2,1 3,1 5,0 7,0 -5,8 8,17 15,21 10,6 1,0 9,11 13,18 39,37 51,52l-3 10z"/>
   <path class="fil44" d="M909 2312l-2 8c12,0 10,2 19,2 5,20 4,5 19,27 6,8 11,8 15,14 11,20 5,15 24,22 6,22 24,22 18,31l8 -1c6,6 9,8 14,16 8,13 10,7 19,15 1,2 5,5 7,8l16 22c0,0 1,1 1,2l13 -16 5 -10c-14,1 -13,1 -24,-13l-24 -23c-12,-12 -8,-13 -7,-15 -22,-3 -12,-5 -23,-16 -6,-5 -17,-13 -13,-20 -16,-3 -4,-1 -13,-8 -14,-12 -24,-15 -28,-33l-7 -6c-21,-12 -30,-10 -11,-43l1 -6 -8 1c-3,16 -19,29 -19,42z"/>
   <path class="fil33" d="M701 2723c17,3 57,-1 75,-4 -49,-7 -26,0 -47,-18 -6,-5 -9,-8 -12,-16l-14 -2c-1,-13 -4,-8 -9,-13 -5,-4 -5,-12 -6,-17 -18,-3 -34,-24 -36,-31l-7 0 -34 1 -4 5c11,6 1,0 9,7 6,7 2,5 12,6l-4 6c19,4 17,21 43,40 8,6 9,4 11,16 13,2 19,9 23,20z"/>
   <path class="fil70" d="M166 1650l7 -3c4,10 4,6 11,14 7,8 2,8 10,15l44 43c16,17 20,14 31,35 6,-1 2,0 4,-3l15 -21c-3,-8 -1,-2 -9,-6 -1,-16 1,-7 -6,-15 -8,-10 -18,-25 -29,-32 -19,-12 -4,-10 -20,-20 -16,-11 -8,-15 -24,-18l-1 -11c-10,-1 -5,0 -12,-5 -9,8 -17,16 -21,27z"/>
   <path class="fil50" d="M889 2341l9 1c-3,7 -11,22 15,30l0 9c20,10 27,23 34,28 18,16 -1,11 20,16l24 27c0,1 2,2 3,3 0,0 0,1 1,1l9 14 12 3c8,17 -3,4 11,17 7,6 8,10 4,20 12,-7 14,-10 24,-19l2 -4c-5,-10 -7,-5 -13,-15 -10,-16 0,-1 -10,-12 -2,-2 -2,-4 -5,-7 -7,-6 -15,-9 -17,-19l-4 6c-3,-10 -10,-13 -20,-15l-6 -13 -11 -2 -1 -11c-19,-2 -13,-20 -37,-19 1,-1 1,4 5,-8l-12 -11c-11,-14 -13,-18 -31,-29 7,-4 -1,-1 7,-8l-13 17z"/>
   <path class="fil54" d="M718 2546l0 -1c23,0 137,-4 149,2 -17,1 -11,-2 -24,-5 -12,-2 -14,2 -26,-4 10,-7 9,-2 18,-5l-26 -6c-6,-19 -22,-22 -30,-32 -1,-1 -2,-5 -6,-7 -5,-4 -2,1 -8,-6l-9 -10c0,0 -1,-1 -1,-1 -7,-7 -5,-8 -12,-12 -10,-7 0,-1 -9,-10 -2,-2 -5,-5 -7,-7 -3,-2 -5,-4 -6,-6 -4,-4 0,-2 -5,-8l-25 -2 3 -5 -34 5c0,0 -1,1 -2,2 5,8 -2,6 31,6l-11 6c3,3 7,3 14,9 8,8 8,10 17,15 14,9 2,11 18,12l1 11c17,4 9,0 17,13 3,5 3,5 6,8l16 12c5,5 0,4 7,8l17 5c-10,0 -9,0 -15,5 8,2 24,9 30,2 -7,11 -73,7 -88,6z"/>
   <path class="fil59" d="M97 2177c25,22 33,37 57,56 5,5 6,7 11,12 13,13 8,14 24,21l5 13c6,3 1,-1 7,4 2,2 -1,2 13,8l0 -46 -9 -2c-4,-9 -7,-11 -15,-14 -13,-3 -3,1 -12,-8 -9,-11 -10,-17 -18,-22 -6,-4 -16,-3 -12,-14l-12 -1c-4,-8 -1,1 2,-9 -6,-9 -15,-11 -22,-17 -6,-6 -6,-16 -16,-19l-3 38z"/>
   <path class="fil55" d="M96 2208c22,21 7,5 13,17 6,11 4,3 10,10l8 10c3,3 -1,-2 3,4 0,0 3,4 3,4 7,9 6,6 16,16 5,5 3,-4 2,10 17,3 19,14 24,20 9,1 3,-1 9,1 3,7 7,17 14,11 1,14 1,10 4,14 4,-4 7,-6 6,-10 -1,16 2,14 6,17l0 -41c-14,-6 -11,-6 -13,-8 -6,-5 -1,-1 -7,-4l-5 -13c-16,-7 -11,-8 -24,-21 -5,-5 -6,-7 -11,-12 -24,-19 -32,-34 -57,-56l-1 -1 0 32z"/>
   <path class="fil44" d="M544 1962l30 -21 -12 1 -35 -36c-7,-9 -2,-7 -15,-9 3,-7 -4,-11 -8,-14 -8,-6 -6,-7 -12,-14 -12,-11 -18,-19 -31,-21 11,-9 -3,-8 -8,-17 -5,-8 -10,-10 -17,-16 -2,-3 -7,-6 -9,-9 -5,-8 4,1 -3,-10 -6,-10 -6,1 -17,-15l-12 -3 1 21c8,5 14,7 19,16 3,4 1,2 4,6 4,6 6,2 9,17 7,-2 8,0 12,6 10,13 -2,2 14,10 5,17 3,3 12,16 5,7 10,13 28,15 -5,6 1,7 4,16 5,12 2,9 13,13 -5,10 -1,4 4,19 3,10 3,-7 12,13l14 2c2,8 0,5 7,7l-4 7z"/>
   <path class="fil35" d="M524 2723l50 1c-4,-9 -3,-6 -15,-6 5,-6 4,-2 -7,-19 -5,-8 -8,-9 -21,-9l2 -10c-7,2 -10,-1 -14,-8 -9,-12 -6,-6 -16,-14 -1,-8 1,-4 -4,-12l-14 -3 -3 -11c0,-1 0,-1 0,-1 -3,-4 -3,-8 -12,-5 14,-2 4,0 8,-5l-46 -4c6,11 14,24 24,33 21,19 19,21 31,22 3,16 10,10 12,26 8,2 16,7 24,12l1 13z"/>
   <path class="fil45" d="M1143 2495c-6,1 -4,2 -3,7l-12 17c9,1 5,3 10,6 15,9 7,-13 22,14 8,13 0,1 8,8 6,5 2,2 5,7 5,5 10,5 17,9 3,8 6,13 11,19 5,6 11,10 14,16l9 1c9,-4 14,-17 20,-26l-3 -10c-6,0 8,-5 -3,3l-3 2c-1,0 -2,0 -2,1 -7,-10 -19,-28 -29,-33 -7,-5 -6,0 -13,-8 -24,-28 -21,-13 -36,-47l-12 14z"/>
   <path class="fil53" d="M902 2324c-8,7 0,4 -7,8 18,11 20,15 31,29l12 11c-4,12 -4,7 -5,8 24,-1 18,17 37,19l1 11 11 2 6 13c10,2 17,5 20,15l4 -6c2,10 10,13 17,19 3,3 3,5 5,7 10,11 0,-4 10,12 6,10 8,5 13,15l-2 4 2 -1 10 -12c0,-1 -1,-2 -1,-2l-16 -22c-2,-3 -6,-6 -7,-8 -9,-8 -11,-2 -19,-15 -5,-8 -8,-10 -14,-16l-8 1c6,-9 -12,-9 -18,-31 -19,-7 -13,-2 -24,-22 -4,-6 -9,-6 -15,-14 -15,-22 -14,-7 -19,-27 -9,0 -7,-2 -19,-2l-5 4z"/>
   <path class="fil68" d="M1174 2443l-7 25c18,20 16,14 25,23 13,12 10,10 12,20 10,1 31,16 25,25l9 2c1,0 1,1 1,1l3 2c7,9 -2,3 7,11l6 -3 9 -8 -3 -1c3,-13 6,-14 5,-28 -19,-11 1,-11 -28,-14 -1,-3 2,1 -1,-7 -4,-9 -20,-17 -26,-21 -3,-32 -4,-3 -21,-29 -3,5 -5,7 -10,8l-5 -15 -1 9z"/>
   <path class="fil71" d="M1039 2592l-6 -1c-2,1 -8,3 -12,5l-13 11 21 1 -5 10c17,2 22,-8 25,16 12,3 10,3 15,9l19 19c6,6 4,13 12,19 8,5 19,-1 11,13l7 -2 26 -16 -7 -1c1,-9 -3,-3 3,-12 -24,0 -18,-12 -30,-23l-12 -12c-4,-5 -11,-8 -18,-9 -3,-16 -1,-14 -18,-16 -1,-9 -1,-6 -5,-13 0,0 -1,-1 -1,-2 0,-1 -1,-1 -1,-2l-11 6z"/>
   <path class="fil72" d="M238 1583c11,0 11,3 11,15l7 5c9,3 7,4 11,13 31,4 3,11 27,15l-4 8c8,3 5,3 12,9 3,2 9,7 11,9 13,11 4,12 20,16l-2 10 11 -3 0 10c10,-7 25,-11 30,-20 -9,-4 -11,-4 -14,-15l-17 -1c-11,-7 -14,-20 -28,-29 -20,-13 0,-22 -26,-27 7,-5 5,-2 -2,-7 -9,-8 -5,-1 -7,-15l-15 1 7 -10c0,-4 1,-3 -4,-3 -11,6 -21,10 -28,19z"/>
   <path class="fil61" d="M1188 2374l8 -1c4,6 4,10 9,16 12,13 2,2 13,8 3,3 -1,4 10,14 11,9 7,9 14,15 6,6 6,3 7,13 20,3 5,0 18,11l15 13c-1,1 0,-1 0,-2 1,-2 2,-3 3,-5l4 -40 -2 0 -4 9 -5 -12 -18 -4 -2 -11c-22,-8 -18,-19 -30,-28 -4,2 -6,-3 -6,7l-2 -24c-7,-5 -11,-2 -20,-10 -13,-12 -3,-6 -10,-19l-2 50z"/>
   <path class="fil43" d="M125 1707c-2,1 -3,-4 -1,4l-1 8c37,-8 44,36 54,43l12 2c1,5 0,0 -2,8 24,5 16,7 25,19 13,15 3,6 11,18l6 -9 3 15 6 -1 5 -15c-14,-31 -1,-11 -17,-25 -9,-8 0,-10 -15,-13 0,-3 0,-6 -1,-8 -3,-6 -19,-17 -19,-17 -3,-14 5,-12 -16,-15 5,-12 -1,-4 -5,-17l-13 0c2,-9 -3,-3 6,-7 -11,-3 -6,0 -11,-13 -10,7 -10,1 -14,-1 0,7 -7,18 -13,24z"/>
   <path class="fil32" d="M863 2722c6,-7 3,-2 2,-13 -11,-7 10,5 -6,-3 -13,-6 4,3 -3,-1 -11,-7 3,-8 -13,-5 1,-9 -5,-8 -9,-22 -10,-2 -12,-6 -17,-2 1,-12 -10,-24 -19,-31l10 -4c-9,-4 -14,-3 -20,-7 -6,-3 -10,-6 -17,-9l-38 -1c8,6 6,2 13,6 -3,6 0,1 -7,7l15 2c11,17 4,5 16,14 7,5 7,11 11,18l17 15c9,8 10,13 19,9 2,7 4,11 8,15l11 11 27 1z"/>
   <path class="fil62" d="M1188 2374l-1 22 -2 22c24,14 11,6 19,16 9,11 12,1 30,18 4,4 10,21 25,21 1,12 6,18 17,17l6 -27 -15 -13c-13,-11 2,-8 -18,-11 -1,-10 -1,-7 -7,-13 -7,-6 -3,-6 -14,-15 -11,-10 -7,-11 -10,-14 -11,-6 -1,5 -13,-8 -5,-6 -5,-10 -9,-16l-8 1z"/>
   <path class="fil52" d="M1068 2573l-18 13c0,1 1,1 1,2 0,1 1,2 1,2 4,7 4,4 5,13 17,2 15,0 18,16 7,1 14,4 18,9l12 12c12,11 6,23 30,23 -6,9 -2,3 -3,12l7 1c9,-3 18,-10 25,-16 -5,-4 -6,-4 -12,-8 -22,-15 -9,-9 -23,-23 -3,-4 -1,-1 -4,-4l-5 -5c-3,-3 -1,1 -4,-4l-11 -17c-3,-3 2,-6 -18,-8l-1 -14c-11,-2 -8,2 -12,-8 -6,-3 -6,3 -6,4z"/>
   <path class="fil45" d="M225 1592l6 1c1,18 0,7 6,16 4,6 3,9 7,16 10,14 20,7 17,27 28,6 27,19 32,22 11,4 19,4 16,17 11,2 9,4 19,6l14 -7 0 -10 -11 3 2 -10c-16,-4 -7,-5 -20,-16 -2,-2 -8,-7 -11,-9 -7,-6 -4,-6 -12,-9l4 -8c-24,-4 4,-11 -27,-15 -4,-9 -2,-10 -11,-13l-7 -5c0,-12 0,-15 -11,-15 -8,0 -9,3 -13,9z"/>
   <path class="fil66" d="M1175 2434l5 15c5,-1 7,-3 10,-8 17,26 18,-3 21,29 6,4 22,12 26,21 3,8 0,4 1,7 29,3 9,3 28,14 1,14 -2,15 -5,28 9,0 9,-3 13,-13 2,-7 3,-13 5,-20 5,-13 10,-27 6,-41l0 -10c-1,2 -2,3 -3,5 0,1 -1,3 0,2l-6 27c-11,1 -16,-5 -17,-17 -15,0 -21,-17 -25,-21 -18,-17 -21,-7 -30,-18 -8,-10 5,-2 -19,-16l2 -22 -3 0 -9 38z"/>
   <path class="fil27" d="M1163 2461l-8 20c15,34 12,19 36,47 7,8 6,3 13,8 10,5 22,23 29,33 0,-1 1,-1 2,-1l3 -2c11,-8 -3,-3 3,-3l3 10c5,-9 9,-14 11,-24l-6 3c-9,-8 0,-2 -7,-11l-3 -2c0,0 0,-1 -1,-1l-9 -2c6,-9 -15,-24 -25,-25 -2,-10 1,-8 -12,-20 -9,-9 -7,-3 -25,-23l7 -25 -5 1c-6,5 -7,9 -6,17z"/>
   <path class="fil53" d="M1112 2538l5 5 -7 9c37,21 13,11 26,21 0,0 9,5 10,6 12,9 -8,2 14,15 2,19 16,23 28,28 4,2 -3,8 10,1l1 4c7,-3 12,-7 13,-14l-1 -8 -19 -3c-9,-24 -14,-5 -24,-20l-7 -19c-9,-4 -5,-1 -11,-7 -5,-5 -2,-2 -9,-6 -9,-5 -7,-12 -12,-23l-8 4 -9 7z"/>
   <path class="fil44" d="M1121 2531l8 -4c5,11 3,18 12,23 7,4 4,1 9,6 6,6 2,3 11,7l7 19c10,15 15,-4 24,20l19 3 1 8c8,-5 9,-5 12,-14l-9 -1c-3,-6 -9,-10 -14,-16 -5,-6 -8,-11 -11,-19 -7,-4 -12,-4 -17,-9 -3,-5 1,-2 -5,-7 -8,-7 0,5 -8,-8 -15,-27 -7,-5 -22,-14 -5,-3 -1,-5 -10,-6l-7 12z"/>
  </g>
 </g>
</svg>
